<svg width="45" height="44" viewBox="0 0 45 44" fill="none" xmlns="http://www.w3.org/2000/svg">
<path d="M22.8 23.2891C17.8243 23.2891 13.7766 27.3367 13.7766 32.3125V34.8906C13.7766 35.6126 14.3437 36.1797 15.0657 36.1797H30.5344C31.2564 36.1797 31.8235 35.6126 31.8235 34.8906V32.3125C31.8235 27.3367 27.7758 23.2891 22.8 23.2891Z" fill="#4096FF"/>
<path d="M22.8 12.9766C19.2422 12.9766 16.3547 15.8641 16.3547 19.4219C16.3547 22.9797 19.2422 25.8672 22.8 25.8672C26.3579 25.8672 29.2454 22.9797 29.2454 19.4219C29.2454 15.8641 26.3579 12.9766 22.8 12.9766Z" fill="#4096FF"/>
<path d="M43.9233 18.21L41.5944 17.4625C41.1304 15.5031 40.357 13.6469 39.3 11.9194L40.3569 9.80536C40.6146 9.31552 40.5116 8.72264 40.1248 8.33601L36.464 4.6749C36.0774 4.28827 35.4844 4.18506 34.9945 4.44296L32.8805 5.4999C31.3078 4.546 29.6062 3.82421 27.8016 3.33437L26.5383 0.721788C26.3062 0.283593 25.868 0 25.3781 0H20.2219C19.732 0 19.2938 0.283593 19.0617 0.721788L17.7985 3.33437C15.9938 3.82421 14.2922 4.546 12.7196 5.4999L10.6056 4.44296C10.1157 4.18506 9.52269 4.28827 9.13606 4.6749L5.47513 8.33592C5.08832 8.72255 4.98528 9.31543 5.24301 9.80528L6.29995 11.9193C5.34605 13.4922 4.62426 15.1937 4.13442 16.9984L1.52201 18.2617C1.08364 18.4937 0.800049 18.932 0.800049 19.4218V24.5781C0.800049 25.0679 1.08364 25.5062 1.52201 25.7382L4.13442 27.0015C4.57261 28.6257 5.21714 30.1984 6.06801 31.6679L5.16558 34.3491C5.01089 34.8131 5.13997 35.3288 5.47513 35.6639L9.13597 39.3248C9.47113 39.66 9.98684 39.7889 10.4508 39.6342L13.1321 38.732C14.7563 39.6601 16.4836 40.3562 18.2625 40.7945L19.0103 43.1234C19.1649 43.639 19.6548 44 20.2219 44H25.3781C25.9452 44 26.4351 43.6391 26.5898 43.1234L27.3375 40.7945C29.1164 40.3563 30.8437 39.6601 32.468 38.732L35.1491 39.6342C35.6132 39.7889 36.1288 39.66 36.464 39.3248L40.1249 35.664C40.46 35.3288 40.5891 34.8131 40.4344 34.3492L39.532 31.6679C40.4601 30.0437 41.1562 28.3163 41.5945 26.5374L43.9234 25.7897C44.439 25.635 44.8 25.1452 44.8 24.5781V19.4218C44.8 18.8546 44.439 18.3647 43.9233 18.21ZM22.8 34.8906C15.6844 34.8906 9.90941 29.1156 9.90941 22C9.90941 14.8843 15.6844 9.10936 22.8 9.10936C29.9156 9.10936 35.6906 14.8843 35.6906 22C35.6906 29.1156 29.9156 34.8906 22.8 34.8906Z" fill="#4096FF"/>
<path d="M22.8 7.82031C14.9882 7.82031 8.62036 14.1882 8.62036 22C8.62036 29.8116 14.9882 36.1797 22.8 36.1797C30.6119 36.1797 36.9797 29.8116 36.9797 22C36.9797 14.1882 30.6119 7.82031 22.8 7.82031ZM22.8 33.6016C16.4064 33.6016 11.1985 28.3937 11.1985 22C11.1985 15.6062 16.4064 10.3984 22.8 10.3984C29.1937 10.3984 34.4016 15.6062 34.4016 22C34.4016 28.3937 29.1937 33.6016 22.8 33.6016Z" fill="#B7E0F6"/>
</svg>
