<svg width="20" height="20" viewBox="0 0 20 20" fill="none" xmlns="http://www.w3.org/2000/svg">
<path d="M16.7857 15.7115H16.25V8.12221C16.25 4.97266 13.9219 2.36998 10.8929 1.93694V1.06864C10.8929 0.575335 10.4933 0.175781 10 0.175781C9.5067 0.175781 9.10714 0.575335 9.10714 1.06864V1.93694C6.07813 2.36998 3.75 4.97266 3.75 8.12221V15.7115H3.21429C2.8192 15.7115 2.5 16.0307 2.5 16.4258V17.1401C2.5 17.2383 2.58036 17.3186 2.67857 17.3186H7.5C7.5 18.6981 8.62054 19.8186 10 19.8186C11.3795 19.8186 12.5 18.6981 12.5 17.3186H17.3214C17.4196 17.3186 17.5 17.2383 17.5 17.1401V16.4258C17.5 16.0307 17.1808 15.7115 16.7857 15.7115ZM10 18.3901C9.40848 18.3901 8.92857 17.9102 8.92857 17.3186H11.0714C11.0714 17.9102 10.5915 18.3901 10 18.3901ZM5.35714 15.7115V8.12221C5.35714 6.88114 5.83929 5.71596 6.71652 4.83873C7.59375 3.9615 8.75893 3.47935 10 3.47935C11.2411 3.47935 12.4063 3.9615 13.2835 4.83873C14.1607 5.71596 14.6429 6.88114 14.6429 8.12221V15.7115H5.35714Z" fill="black" fill-opacity="0.65"/>
</svg>
