<svg width="32" height="43" viewBox="0 0 32 43" fill="none" xmlns="http://www.w3.org/2000/svg">
<g filter="url(#filter0_f_7032_13129)">
<ellipse cx="16.0003" cy="38.1098" rx="5.33333" ry="1.90476" fill="black" fill-opacity="0.2"/>
</g>
<path fill-rule="evenodd" clip-rule="evenodd" d="M16 0.395508C24.8366 0.395508 32 7.55895 32 16.3955C32 23.1708 27.7888 28.9625 21.841 31.2958L16.9113 38.0341C16.8085 38.1752 16.6721 38.2903 16.5135 38.3698C16.3549 38.4493 16.1787 38.4908 16 38.4908C15.8213 38.4908 15.6451 38.4493 15.4865 38.3698C15.3279 38.2903 15.1915 38.1752 15.0887 38.0341L10.159 31.2958C4.21124 28.9625 0 23.1708 0 16.3955C0 7.55895 7.16344 0.395508 16 0.395508Z" fill="#1677FF"/>
<path d="M21.6584 30.8304L21.5232 30.8834L21.4375 31.0006L16.5078 37.7389L16.5072 37.7397C16.4522 37.8151 16.378 37.8784 16.2895 37.9228C16.2009 37.9671 16.1016 37.9908 16 37.9908C15.8984 37.9908 15.7991 37.9671 15.7105 37.9228L15.4865 38.3698L15.7105 37.9228C15.622 37.8784 15.5478 37.8151 15.4928 37.7397L15.4922 37.7389L10.5625 31.0006L10.4768 30.8834L10.3416 30.8304C4.57885 28.5696 0.5 22.9583 0.5 16.3955C0.5 7.8351 7.43959 0.895508 16 0.895508C24.5604 0.895508 31.5 7.8351 31.5 16.3955C31.5 22.9583 27.4212 28.5696 21.6584 30.8304Z" stroke="black" stroke-opacity="0.2"/>
<path d="M22.8569 16.3952C22.8569 12.6081 19.7868 9.53809 15.9997 9.53809C12.2126 9.53809 9.14258 12.6081 9.14258 16.3952C9.14258 20.1823 12.2126 23.2524 15.9997 23.2524C19.7868 23.2524 22.8569 20.1823 22.8569 16.3952Z" fill="white"/>
<defs>
<filter id="filter0_f_7032_13129" x="8.66699" y="34.2051" width="14.667" height="7.80957" filterUnits="userSpaceOnUse" color-interpolation-filters="sRGB">
<feFlood flood-opacity="0" result="BackgroundImageFix"/>
<feBlend mode="normal" in="SourceGraphic" in2="BackgroundImageFix" result="shape"/>
<feGaussianBlur stdDeviation="1" result="effect1_foregroundBlur_7032_13129"/>
</filter>
</defs>
</svg>
