<svg width="16" height="16" viewBox="0 0 16 16" fill="none" xmlns="http://www.w3.org/2000/svg">
<path d="M14.9119 14.3879L13.9655 8.9308H14.2852C14.5423 8.9308 14.7494 8.72366 14.7494 8.46652V5.03795C14.7494 4.7808 14.5423 4.57366 14.2852 4.57366H9.8923V1.32366C9.8923 1.06652 9.68516 0.859375 9.42801 0.859375H6.57087C6.31373 0.859375 6.10659 1.06652 6.10659 1.32366V4.57366H1.71373C1.45659 4.57366 1.24944 4.7808 1.24944 5.03795V8.46652C1.24944 8.72366 1.45659 8.9308 1.71373 8.9308H2.03337L1.08694 14.3879C1.07534 14.4546 1.07847 14.5229 1.09611 14.5882C1.11374 14.6535 1.14545 14.7142 1.18902 14.7659C1.23258 14.8176 1.28694 14.8592 1.34828 14.8877C1.40962 14.9162 1.47645 14.9309 1.54409 14.9308H14.4548C14.4816 14.9308 14.5084 14.929 14.5334 14.9237C14.5935 14.9136 14.651 14.8916 14.7027 14.8592C14.7543 14.8268 14.799 14.7844 14.8342 14.7346C14.8694 14.6848 14.8944 14.6286 14.9077 14.5691C14.9211 14.5096 14.9225 14.448 14.9119 14.3879ZM2.49944 5.82366H7.35659V2.10938H8.6423V5.82366H13.4994V7.6808H2.49944V5.82366ZM10.8566 13.6808V10.8951C10.8566 10.8165 10.7923 10.7522 10.7137 10.7522H9.85659C9.77801 10.7522 9.71373 10.8165 9.71373 10.8951V13.6808H6.28516V10.8951C6.28516 10.8165 6.22087 10.7522 6.1423 10.7522H5.28516C5.20659 10.7522 5.1423 10.8165 5.1423 10.8951V13.6808H2.47801L3.28337 9.03795H12.7137L13.5191 13.6808H10.8566Z" fill="#FAAD14"/>
</svg>
