<svg width="16" height="17" viewBox="0 0 16 17" fill="none" xmlns="http://www.w3.org/2000/svg">
<g clip-path="url(#clip0_7606_9254)">
<path d="M13.7139 0.753906H4.14244C4.06387 0.753906 3.99958 0.818192 3.99958 0.896763V1.89676C3.99958 1.97533 4.06387 2.03962 4.14244 2.03962H12.9996V14.3253C12.9996 14.4039 13.0639 14.4682 13.1424 14.4682H14.1424C14.221 14.4682 14.2853 14.4039 14.2853 14.3253V1.32533C14.2853 1.00926 14.0299 0.753906 13.7139 0.753906ZM11.4282 3.03962H2.2853C1.96922 3.03962 1.71387 3.29498 1.71387 3.61105V13.0878C1.71387 13.2396 1.77458 13.3843 1.88172 13.4914L4.97637 16.586C5.01565 16.6253 5.0603 16.6575 5.10851 16.6843V16.7182H5.18351C5.24601 16.7414 5.31208 16.7539 5.37994 16.7539H11.4282C11.7442 16.7539 11.9996 16.4985 11.9996 16.1825V3.61105C11.9996 3.29498 11.7442 3.03962 11.4282 3.03962ZM5.10672 14.9003L3.56922 13.361H5.10672V14.9003ZM10.7139 15.4682H6.24958V12.9325C6.24958 12.5378 5.92994 12.2182 5.5353 12.2182H2.99958V4.32534H10.7139V15.4682Z" fill="#1677FF"/>
</g>
<defs>
<clipPath id="clip0_7606_9254">
<rect width="16" height="16" fill="white" transform="translate(0 0.753906)"/>
</clipPath>
</defs>
</svg>
