<svg width="45" height="53" viewBox="0 0 45 53" fill="none" xmlns="http://www.w3.org/2000/svg">
<g opacity="0.3">
<path opacity="0.8" d="M31.3944 10.835C30.1916 10.8338 29.0384 10.3555 28.188 9.50501C27.3375 8.65452 26.8592 7.50134 26.858 6.29857V0H6.58719C5.01706 0 3.51123 0.623751 2.40098 1.734C1.29073 2.84426 0.666992 4.35005 0.666992 5.92018V41.6086C0.669324 43.1772 1.29409 44.6808 2.40409 45.7891C3.51409 46.8975 5.01858 47.52 6.58719 47.52H30.9192C31.6968 47.5203 32.4669 47.3674 33.1854 47.07C33.904 46.7726 34.5569 46.3366 35.1068 45.7868C35.6568 45.237 36.0931 44.5843 36.3907 43.8659C36.6884 43.1475 36.8416 42.3775 36.8416 41.5998V10.8262L31.3944 10.835Z" fill="#67C23A"/>
</g>
<path d="M36.842 10.835H31.3948C30.192 10.8338 29.0389 10.3555 28.1884 9.50501C27.3379 8.65452 26.8596 7.50134 26.8584 6.29857V0L36.842 10.835Z" fill="#67C23A"/>
<path d="M41.1338 37.5342H13.625C11.6737 37.5342 10.0918 39.116 10.0918 41.0674V49.269C10.0918 51.2203 11.6737 52.8022 13.625 52.8022H41.1338C43.0851 52.8022 44.667 51.2203 44.667 49.269V41.0674C44.667 39.116 43.0851 37.5342 41.1338 37.5342Z" fill="#67C23A"/>
<path d="M18.3744 46.8867V48.4817H16.7266V46.8867H18.3744Z" fill="white"/>
<path d="M24.2946 42.4912C24.8513 42.9418 25.2296 43.5759 25.3616 44.2798H23.6764C23.564 43.9877 23.3652 43.7368 23.1066 43.5604C22.8345 43.382 22.5145 43.2907 22.1892 43.2987C21.9747 43.2922 21.7616 43.335 21.5663 43.4239C21.371 43.5127 21.1988 43.6452 21.0628 43.8112C20.7605 44.2021 20.6082 44.6884 20.6338 45.1819C20.6081 45.6733 20.7604 46.1576 21.0628 46.5459C21.1993 46.7109 21.3718 46.8425 21.567 46.9306C21.7623 47.0187 21.9751 47.0609 22.1892 47.054C22.5145 47.062 22.8345 46.9707 23.1066 46.7922C23.3651 46.6195 23.5653 46.3725 23.6808 46.0838H25.366C25.2312 46.7855 24.8534 47.4173 24.299 47.8681C23.7041 48.3253 22.9674 48.5589 22.2178 48.5281C21.6273 48.541 21.0444 48.3943 20.5304 48.1034C20.0488 47.825 19.6589 47.4121 19.4084 46.9154C19.1372 46.3761 19.0013 45.7789 19.0124 45.1753C19.001 44.5709 19.1369 43.9729 19.4084 43.4328C19.6589 42.9361 20.0488 42.5233 20.5304 42.2448C21.0444 41.954 21.6273 41.8073 22.2178 41.8203C22.9672 41.7945 23.7019 42.0318 24.2946 42.4912Z" fill="white"/>
<path d="M30.7254 47.5857C30.5357 47.8883 30.2641 48.1308 29.9422 48.2853C29.5502 48.4687 29.1207 48.5576 28.6882 48.5449C28.0367 48.5713 27.3948 48.3818 26.8622 48.0059C26.6269 47.829 26.4344 47.6016 26.2988 47.3404C26.1633 47.0792 26.0881 46.7909 26.079 46.4967H27.7752C27.7869 46.7184 27.882 46.9274 28.0414 47.0819C28.1989 47.2294 28.4086 47.3085 28.6243 47.3019C28.8012 47.3109 28.9747 47.251 29.1084 47.1347C29.1663 47.0773 29.2119 47.0087 29.2421 46.933C29.2724 46.8573 29.2868 46.7762 29.2843 46.6947C29.2864 46.6177 29.2731 46.541 29.2451 46.4692C29.2172 46.3975 29.1751 46.332 29.1216 46.2767C29.006 46.1593 28.8684 46.0659 28.7168 46.0017C28.554 45.9291 28.3318 45.8433 28.0458 45.7443C27.6966 45.6294 27.3556 45.4913 27.025 45.3307C26.7532 45.1902 26.5199 44.9855 26.3452 44.7345C26.1441 44.4299 26.0448 44.0694 26.0614 43.7049C26.0524 43.3434 26.1562 42.9882 26.3584 42.6885C26.5662 42.3957 26.8521 42.167 27.1834 42.0285C27.5667 41.8734 27.9777 41.7985 28.3911 41.8085C29.0162 41.7754 29.6333 41.9596 30.138 42.3299C30.3533 42.5045 30.5297 42.7224 30.6555 42.9695C30.7813 43.2166 30.8538 43.4874 30.8684 43.7643H29.1458C29.1246 43.5708 29.0412 43.3894 28.9082 43.2473C28.8394 43.1821 28.7581 43.1316 28.6692 43.0987C28.5804 43.0658 28.4858 43.0512 28.3911 43.0559C28.2267 43.0475 28.0651 43.1008 27.938 43.2055C27.8785 43.2614 27.8322 43.33 27.8025 43.4061C27.7728 43.4822 27.7605 43.564 27.7664 43.6455C27.7645 43.7184 27.7771 43.791 27.8036 43.859C27.83 43.9269 27.8697 43.989 27.9204 44.0415C28.0294 44.1563 28.1613 44.247 28.3076 44.3077C28.4616 44.3759 28.686 44.4639 28.9676 44.5695C29.3231 44.6839 29.6695 44.8251 30.0038 44.9919C30.2778 45.1393 30.5137 45.3487 30.6924 45.6035C30.8964 45.9118 30.9973 46.2769 30.9806 46.6463C30.9822 46.9768 30.894 47.3015 30.7254 47.5857Z" fill="white"/>
<path d="M33.1034 41.8945L34.716 46.8511L36.3286 41.8945H38.0336L35.7412 48.4814H33.682L31.3984 41.8945H33.1034Z" fill="white"/>
<path d="M26.8225 33.1761H10.6855C9.28852 33.1761 8.15332 31.7857 8.15332 30.0741V18.3723C8.15332 16.6629 9.28852 15.2725 10.6855 15.2725H26.8225C28.2195 15.2725 29.3547 16.6629 29.3547 18.3723V30.0741C29.3547 31.7857 28.2195 33.1761 26.8225 33.1761ZM10.6855 16.8565C10.0035 16.8565 9.44692 17.5363 9.44692 18.3723V30.0741C9.44692 30.9101 10.0035 31.5899 10.6855 31.5899H26.8225C27.5045 31.5899 28.0589 30.9101 28.0589 30.0741V18.3723C28.0589 17.5363 27.5045 16.8565 26.8225 16.8565H10.6855Z" fill="#67C23A"/>
<path d="M28.7086 26.1299H8.80078V27.7161H28.7086V26.1299Z" fill="#67C23A"/>
<path d="M28.7086 20.6914H8.80078V22.2776H28.7086V20.6914Z" fill="#67C23A"/>
<path d="M23.6106 16.0645H22.0244V32.3819H23.6106V16.0645Z" fill="#67C23A"/>
<path d="M15.4837 16.0645H13.8975V32.3819H15.4837V16.0645Z" fill="#67C23A"/>
</svg>
