<svg width="44" height="53" viewBox="0 0 44 53" fill="none" xmlns="http://www.w3.org/2000/svg">
<g opacity="0.3">
<path opacity="0.8" d="M30.7259 10.8345C29.5232 10.8333 28.37 10.355 27.5196 9.50453C26.6692 8.65409 26.1909 7.50097 26.1897 6.29826V4.08858e-07H5.92211C5.14452 -0.000288554 4.37446 0.152594 3.65597 0.449968C2.93748 0.747342 2.28464 1.18337 1.7347 1.73311C1.18475 2.28285 0.748494 2.93555 0.450854 3.65393C0.153213 4.37231 -5.36905e-08 5.14229 0 5.91988V41.6065C-5.36905e-08 42.3841 0.153213 43.1541 0.450854 43.8725C0.748494 44.5909 1.18475 45.2436 1.7347 45.7933C2.28464 46.3431 2.93748 46.779 3.65597 47.0764C4.37446 47.3738 5.14452 47.5267 5.92211 47.5264H30.2529C31.0303 47.5264 31.8001 47.3733 32.5183 47.0758C33.2366 46.7783 33.8892 46.3422 34.4389 45.7925C34.9886 45.2428 35.4247 44.5902 35.7222 43.872C36.0197 43.1537 36.1728 42.3839 36.1728 41.6065V10.8345H30.7259Z" fill="#409EFF"/>
</g>
<path d="M36.173 10.8345H30.7261C29.5234 10.8333 28.3703 10.355 27.5198 9.50453C26.6694 8.65409 26.1911 7.50097 26.1899 6.29826V0L36.173 10.8345Z" fill="#409EFF"/>
<path d="M28.7307 18.4192H6.01905C5.80084 18.4192 5.59158 18.3325 5.43728 18.1782C5.28298 18.0239 5.19629 17.8147 5.19629 17.5964C5.196 17.4882 5.21708 17.381 5.2583 17.2809C5.29952 17.1808 5.36007 17.0899 5.4365 17.0132C5.51293 16.9366 5.60374 16.8758 5.7037 16.8343C5.80367 16.7928 5.91082 16.7715 6.01905 16.7715H28.7307C28.9495 16.7715 29.1594 16.8584 29.3141 17.0131C29.4688 17.1678 29.5557 17.3777 29.5557 17.5964C29.5551 17.8149 29.4679 18.0241 29.3133 18.1784C29.1586 18.3326 28.9492 18.4192 28.7307 18.4192Z" fill="#409EFF"/>
<path d="M28.7307 23.3411H6.01905C5.80084 23.3411 5.59158 23.2544 5.43728 23.1001C5.28298 22.9458 5.19629 22.7365 5.19629 22.5183C5.196 22.4101 5.21708 22.3029 5.2583 22.2028C5.29952 22.1027 5.36007 22.0117 5.4365 21.9351C5.51293 21.8585 5.60374 21.7977 5.7037 21.7562C5.80367 21.7147 5.91082 21.6934 6.01905 21.6934H28.7307C28.9495 21.6934 29.1594 21.7802 29.3141 21.9349C29.4688 22.0896 29.5557 22.2995 29.5557 22.5183C29.5551 22.7367 29.4679 22.946 29.3133 23.1002C29.1586 23.2544 28.9492 23.3411 28.7307 23.3411Z" fill="#409EFF"/>
<path d="M28.7307 28.262H6.01905C5.91082 28.262 5.80367 28.2406 5.7037 28.1991C5.60374 28.1576 5.51293 28.0969 5.4365 28.0202C5.36007 27.9436 5.29952 27.8526 5.2583 27.7525C5.21708 27.6525 5.196 27.5452 5.19629 27.437C5.19629 27.2188 5.28298 27.0095 5.43728 26.8552C5.59158 26.7009 5.80084 26.6143 6.01905 26.6143H28.7307C28.9492 26.6143 29.1586 26.7009 29.3133 26.8551C29.4679 27.0093 29.5551 27.2186 29.5557 27.437C29.5557 27.6558 29.4688 27.8656 29.3141 28.0203C29.1594 28.175 28.9495 28.262 28.7307 28.262Z" fill="#409EFF"/>
<path d="M19.7728 33.1829H6.01905C5.91082 33.1829 5.80367 33.1615 5.7037 33.12C5.60374 33.0785 5.51293 33.0177 5.4365 32.9411C5.36007 32.8644 5.29952 32.7735 5.2583 32.6734C5.21708 32.5734 5.196 32.4661 5.19629 32.3579C5.19629 32.1397 5.28298 31.9304 5.43728 31.7761C5.59158 31.6218 5.80084 31.5352 6.01905 31.5352H19.7728C19.991 31.5352 20.2003 31.6218 20.3546 31.7761C20.5089 31.9304 20.5955 32.1397 20.5955 32.3579C20.5958 32.4661 20.5748 32.5734 20.5335 32.6734C20.4923 32.7735 20.4318 32.8644 20.3553 32.9411C20.2789 33.0177 20.1881 33.0785 20.0881 33.12C19.9882 33.1615 19.881 33.1829 19.7728 33.1829Z" fill="#409EFF"/>
<path d="M40.4672 37.5322H12.9598C11.0085 37.5322 9.42676 39.114 9.42676 41.0652V49.2664C9.42676 51.2177 11.0085 52.7995 12.9598 52.7995H40.4672C42.4184 52.7995 44.0002 51.2177 44.0002 49.2664V41.0652C44.0002 39.114 42.4184 37.5322 40.4672 37.5322Z" fill="#409EFF"/>
<path d="M16.7674 46.9414V48.5407H15.1108V46.9414H16.7674Z" fill="white"/>
<path d="M23.1341 46.9461C22.8586 47.4463 22.4425 47.8548 21.9373 48.1209C21.3688 48.4116 20.7366 48.556 20.0982 48.541H17.5991V41.926H20.0982C20.7371 41.9102 21.3701 42.0514 21.9417 42.3374C22.4449 42.5986 22.8597 43.0027 23.1341 43.4989C23.4185 44.027 23.5617 44.6196 23.5498 45.2192C23.5612 45.8209 23.418 46.4155 23.1341 46.9461ZM21.4137 46.6139C21.5926 46.4304 21.7311 46.2115 21.8205 45.9714C21.9099 45.7312 21.9482 45.475 21.9329 45.2192C21.9483 44.9637 21.9101 44.7078 21.8206 44.468C21.7312 44.2282 21.5926 44.0097 21.4137 43.8267C21.0129 43.4752 20.4895 43.2965 19.9574 43.3295H19.2028V47.1089H19.9596C20.4905 47.1409 21.0127 46.9632 21.4137 46.6139Z" fill="white"/>
<path d="M29.3005 42.2575C29.8039 42.5434 30.2199 42.9609 30.5039 43.4652C30.8015 43.9979 30.9533 44.5997 30.9439 45.2097C30.9539 45.8213 30.8021 46.4247 30.5039 46.9586C30.2189 47.4649 29.8014 47.884 29.2961 48.1708C28.7819 48.4645 28.1988 48.6163 27.6066 48.6108C27.0144 48.616 26.4315 48.4642 25.9171 48.1708C25.412 47.8846 24.995 47.4653 24.7116 46.9586C24.4123 46.425 24.2605 45.8214 24.2716 45.2097C24.2602 44.5994 24.4121 43.9972 24.7116 43.4652C24.9965 42.9608 25.4132 42.5433 25.9171 42.2575C26.4315 41.9641 27.0144 41.8123 27.6066 41.8175C28.2002 41.8119 28.7847 41.9638 29.3005 42.2575ZM26.3527 43.8194C26.0282 44.2076 25.8631 44.7045 25.8907 45.2097C25.863 45.713 26.0282 46.2079 26.3527 46.5935C26.5108 46.7653 26.7045 46.9004 26.9204 46.9893C27.1363 47.0782 27.369 47.1188 27.6022 47.1082C27.8347 47.1182 28.0666 47.0773 28.2816 46.9884C28.4967 46.8995 28.6898 46.7647 28.8473 46.5935C29.1734 46.2085 29.3402 45.7136 29.3137 45.2097C29.3401 44.7067 29.1751 44.2123 28.8518 43.826C28.6938 43.6541 28.5 43.5189 28.2841 43.43C28.0682 43.341 27.8355 43.3005 27.6022 43.3112C27.3696 43.3005 27.1374 43.3405 26.9217 43.4282C26.7059 43.5159 26.5118 43.6494 26.3527 43.8194Z" fill="white"/>
<path d="M36.9536 42.5242C37.5116 42.9782 37.8911 43.6148 38.025 44.3215H36.3311C36.2168 44.0286 36.0167 43.7771 35.7569 43.5999C35.4831 43.4217 35.1618 43.3304 34.8352 43.3382C34.6195 43.3312 34.4051 43.3741 34.2086 43.4634C34.0121 43.5526 33.8389 43.6859 33.7022 43.853C33.3959 44.2448 33.2398 44.7332 33.2622 45.2301C33.2398 45.7249 33.396 46.2113 33.7022 46.6006C33.84 46.7659 34.0136 46.8976 34.21 46.9856C34.4063 47.0737 34.6201 47.1158 34.8352 47.1087C35.1619 47.1175 35.4835 47.0261 35.7569 46.847C36.0152 46.673 36.2153 46.4255 36.3311 46.1364H38.025C37.8889 46.8411 37.5097 47.4756 36.9536 47.9294C36.3552 48.3862 35.616 48.6197 34.8637 48.5893C34.271 48.6018 33.6859 48.4543 33.1698 48.1625C32.6869 47.8818 32.2951 47.4678 32.0413 46.9702C31.7686 46.4243 31.6327 45.8203 31.6453 45.2103C31.6329 44.6002 31.7688 43.9963 32.0413 43.4504C32.2951 42.9527 32.6869 42.5388 33.1698 42.258C33.6859 41.9662 34.271 41.8187 34.8637 41.8312C35.6199 41.8112 36.3592 42.0564 36.9536 42.5242Z" fill="white"/>
</svg>
