<svg width="20" height="28" viewBox="0 0 20 28" fill="none" xmlns="http://www.w3.org/2000/svg">
<g filter="url(#filter0_f_7032_12845)">
<ellipse cx="10.0003" cy="24.1905" rx="3.33333" ry="1.19048" fill="black" fill-opacity="0.2"/>
</g>
<path fill-rule="evenodd" clip-rule="evenodd" d="M10 0.619141C15.5228 0.619141 20 5.09629 20 10.6191C20 14.8537 17.368 18.4735 13.6506 19.9319L10.5696 24.1433C10.5053 24.2314 10.4201 24.3034 10.3209 24.3531C10.2218 24.4027 10.1117 24.4287 10 24.4287C9.88829 24.4287 9.77821 24.4027 9.67908 24.3531C9.57995 24.3034 9.49466 24.2314 9.43043 24.1433L6.34936 19.9319C2.63203 18.4735 0 14.8537 0 10.6191C0 5.09629 4.47715 0.619141 10 0.619141Z" fill="#686C7F"/>
<path d="M13.468 19.4664L13.3328 19.5194L13.2471 19.6366L10.166 23.848L10.1654 23.8488C10.149 23.8714 10.1259 23.8915 10.0969 23.906L10.3209 24.3531L10.0969 23.906C10.0678 23.9206 10.0345 23.9287 10 23.9287C9.96546 23.9287 9.93215 23.9206 9.90308 23.906L9.67908 24.3531L9.90307 23.906C9.87407 23.8915 9.85098 23.8714 9.83455 23.8488L9.83397 23.848L6.7529 19.6366L6.66715 19.5194L6.53197 19.4664C2.99963 18.0806 0.5 14.6412 0.5 10.6191C0.5 5.37244 4.7533 1.11914 10 1.11914C15.2467 1.11914 19.5 5.37244 19.5 10.6191C19.5 14.6412 17.0004 18.0806 13.468 19.4664Z" stroke="black" stroke-opacity="0.2"/>
<path d="M14.2853 10.6187C14.2853 8.25179 12.3665 6.33301 9.99958 6.33301C7.63265 6.33301 5.71387 8.25179 5.71387 10.6187C5.71387 12.9857 7.63265 14.9044 9.99958 14.9044C12.3665 14.9044 14.2853 12.9857 14.2853 10.6187Z" fill="white"/>
<defs>
<filter id="filter0_f_7032_12845" x="4.66699" y="21" width="10.667" height="6.38086" filterUnits="userSpaceOnUse" color-interpolation-filters="sRGB">
<feFlood flood-opacity="0" result="BackgroundImageFix"/>
<feBlend mode="normal" in="SourceGraphic" in2="BackgroundImageFix" result="shape"/>
<feGaussianBlur stdDeviation="1" result="effect1_foregroundBlur_7032_12845"/>
</filter>
</defs>
</svg>
