<svg width="20" height="20" viewBox="0 0 20 20" fill="none" xmlns="http://www.w3.org/2000/svg">
<g clip-path="url(#clip0_7106_8684)">
<path d="M10.4471 2.38092C10.2031 2.12693 9.7969 2.12693 9.55291 2.38092L2.66357 9.55244V18.5323C2.66357 19.0345 3.07068 19.4416 3.57287 19.4416H16.4271C16.9293 19.4416 17.3364 19.0345 17.3364 18.5323C17.3364 18.347 17.3364 9.98412 17.3364 9.5524L10.4471 2.38092Z" fill="#98C5FB"/>
<path d="M7.54761 19.4409V15.7219C7.54761 14.3675 8.64558 13.2695 9.99995 13.2695C11.3544 13.2695 12.4523 14.3675 12.4523 15.7219V19.4409C12.1949 19.4409 7.8287 19.4409 7.54761 19.4409Z" fill="#3B89F6"/>
<path d="M9.55291 3.52116L1.52986 11.8728C1.36947 12.0398 1.10322 12.0425 0.939547 11.8788L0.121071 11.0603C-0.0380698 10.9012 -0.040648 10.644 0.11525 10.4817L9.40384 0.812568C9.72916 0.473936 10.2708 0.473936 10.5961 0.812568L19.8847 10.4817C20.0406 10.644 20.0381 10.9012 19.8789 11.0603L19.0605 11.8788C18.8968 12.0425 18.6306 12.0398 18.4702 11.8728L10.4471 3.52116C10.2031 3.26718 9.79689 3.26718 9.55291 3.52116Z" fill="#3B89F6"/>
</g>
<defs>
<clipPath id="clip0_7106_8684">
<rect width="20" height="20" fill="white"/>
</clipPath>
</defs>
</svg>
