<svg width="14" height="14" viewBox="0 0 14 14" fill="none" xmlns="http://www.w3.org/2000/svg">
<path d="M4.625 1.87402H4.5C4.56875 1.87402 4.625 1.81777 4.625 1.74902V1.87402H9.375V1.74902C9.375 1.81777 9.43125 1.87402 9.5 1.87402H9.375V2.99902H10.5V1.74902C10.5 1.19746 10.0516 0.749023 9.5 0.749023H4.5C3.94844 0.749023 3.5 1.19746 3.5 1.74902V2.99902H4.625V1.87402ZM12.5 2.99902H1.5C1.22344 2.99902 1 3.22246 1 3.49902V3.99902C1 4.06777 1.05625 4.12402 1.125 4.12402H2.06875L2.45469 12.2959C2.47969 12.8287 2.92031 13.249 3.45313 13.249H10.5469C11.0813 13.249 11.5203 12.8303 11.5453 12.2959L11.9313 4.12402H12.875C12.9438 4.12402 13 4.06777 13 3.99902V3.49902C13 3.22246 12.7766 2.99902 12.5 2.99902ZM10.4266 12.124H3.57344L3.19531 4.12402H10.8047L10.4266 12.124Z" fill="#8C8C8C"/>
</svg>
