<svg width="45" height="54" viewBox="0 0 45 54" fill="none" xmlns="http://www.w3.org/2000/svg">
<g opacity="0.3">
<path opacity="0.8" d="M31.3944 11.6346C30.1915 11.634 29.038 11.1559 28.1873 10.3052C27.3367 9.45462 26.8586 8.30111 26.858 7.09816V0.801758H6.58723C5.80959 0.801758 5.03958 0.954952 4.32116 1.25261C3.60275 1.55026 2.94996 1.98654 2.40019 2.53651C1.85042 3.08649 1.41443 3.73939 1.11704 4.45792C0.819648 5.17644 0.666704 5.94653 0.666993 6.72417V42.4104C0.666704 43.188 0.819648 43.9581 1.11704 44.6766C1.41443 45.3951 1.85042 46.048 2.40019 46.598C2.94996 47.148 3.60275 47.5842 4.32116 47.8819C5.03958 48.1795 5.80959 48.3328 6.58723 48.3328H30.9192C31.6968 48.3328 32.4668 48.1795 33.1853 47.8819C33.9037 47.5842 34.5564 47.148 35.1062 46.598C35.6559 46.048 36.092 45.3951 36.3894 44.6766C36.6868 43.9581 36.8397 43.188 36.8394 42.4104V11.6368L31.3944 11.6346Z" fill="#67C23A"/>
</g>
<path d="M36.8398 11.6346H31.3948C30.1919 11.634 29.0384 11.1559 28.1877 10.3052C27.3371 9.45462 26.859 8.30111 26.8584 7.09816V0.801758L36.8398 11.6346Z" fill="#67C23A"/>
<path d="M41.1338 38.334H13.625C11.6737 38.334 10.0918 39.9159 10.0918 41.8672V50.0688C10.0918 52.0201 11.6737 53.602 13.625 53.602H41.1338C43.0852 53.602 44.667 52.0201 44.667 50.0688V41.8672C44.667 39.9159 43.0852 38.334 41.1338 38.334Z" fill="#67C23A"/>
<path d="M19.1956 47.7432V49.3448H17.5391V47.7432H19.1956Z" fill="white"/>
<path d="M24.1125 42.7295V47.2483C24.1125 47.942 23.924 48.4752 23.5471 48.8477C23.3367 49.0417 23.0894 49.1914 22.8199 49.2878C22.5504 49.3841 22.2642 49.4253 21.9785 49.4087C21.6656 49.4255 21.3524 49.3801 21.0571 49.2751C20.7618 49.1701 20.4902 49.0077 20.2581 48.7971C19.8342 48.3879 19.6216 47.8012 19.6201 47.0371H21.2019C21.2019 47.6553 21.4373 47.9633 21.9037 47.9633C22.3107 47.9633 22.5131 47.7257 22.5131 47.2527V42.7339L24.1125 42.7295Z" fill="white"/>
<path d="M26.7654 47.0239V49.3449H25.166V42.7295H27.7576C28.5423 42.7295 29.1407 42.9238 29.5528 43.3125C29.7614 43.5169 29.9243 43.7631 30.0308 44.035C30.1374 44.3069 30.1852 44.5982 30.171 44.8899C30.177 45.2743 30.0822 45.6536 29.896 45.9899C29.7044 46.3179 29.4195 46.5813 29.0776 46.7467C28.6657 46.9422 28.2134 47.0372 27.7576 47.0239H26.7654ZM28.543 44.8899C28.543 44.3032 28.2218 44.0099 27.5794 44.0099H26.7654V45.7325H27.5794C28.2218 45.7384 28.543 45.4575 28.543 44.8899Z" fill="white"/>
<path d="M36.1049 43.262C36.6376 43.6625 36.9959 44.2524 37.1059 44.9098H35.4119C35.2973 44.6795 35.1165 44.4888 34.8927 44.362C34.6407 44.2123 34.3519 44.1361 34.0589 44.142C33.8314 44.1327 33.6047 44.1736 33.3948 44.2618C33.1849 44.35 32.997 44.4834 32.8445 44.6524C32.5218 45.0372 32.3575 45.5303 32.3847 46.0318C32.3847 46.661 32.5453 47.1442 32.8665 47.4816C33.0471 47.6567 33.2623 47.7922 33.4984 47.8793C33.7344 47.9665 33.986 48.0033 34.2371 47.9876C34.5961 47.9941 34.9474 47.8837 35.2381 47.673C35.5349 47.4513 35.7494 47.137 35.8475 46.7798H33.8257V45.6292H37.1851V47.211C37.0567 47.6047 36.8536 47.97 36.5867 48.2868C36.2977 48.6281 35.9382 48.9028 35.5329 49.092C35.0747 49.3037 34.5746 49.409 34.0699 49.4C33.4561 49.4161 32.8489 49.2696 32.3099 48.9754C31.8168 48.6981 31.4154 48.2829 31.1549 47.7808C30.875 47.2371 30.735 46.6322 30.7479 46.0208C30.7369 45.4131 30.8767 44.8121 31.1549 44.2718C31.415 43.7708 31.8146 43.3559 32.3055 43.0772C32.8366 42.7852 33.4354 42.6388 34.0413 42.6526C34.7778 42.6205 35.504 42.8349 36.1049 43.262Z" fill="white"/>
<path d="M23.6132 33.012H13.8958C12.9445 33.0108 12.0325 32.6324 11.3599 31.9597C10.6872 31.2871 10.3088 30.3751 10.3076 29.4238V19.7064C10.3088 18.7551 10.6872 17.8431 11.3599 17.1704C12.0325 16.4977 12.9445 16.1193 13.8958 16.1182H23.6132C24.5643 16.1193 25.4761 16.4978 26.1484 17.1705C26.8207 17.8433 27.1986 18.7553 27.1992 19.7064V29.4238C27.1986 30.3748 26.8207 31.2869 26.1484 31.9596C25.4761 32.6323 24.5643 33.0108 23.6132 33.012ZM13.8958 17.7044C13.365 17.7049 12.8561 17.9161 12.4808 18.2914C12.1055 18.6667 11.8944 19.1756 11.8938 19.7064V29.4238C11.8944 29.9545 12.1055 30.4634 12.4808 30.8387C12.8561 31.2141 13.365 31.4252 13.8958 31.4258H23.6132C24.1438 31.4252 24.6524 31.214 25.0274 30.8386C25.4024 30.4632 25.613 29.9543 25.613 29.4238V19.7064C25.613 19.1758 25.4024 18.6669 25.0274 18.2915C24.6524 17.9161 24.1438 17.7049 23.6132 17.7044H13.8958Z" fill="#67C23A"/>
<path d="M26.4069 27.576V29.424C26.4063 30.1649 26.1118 30.8752 25.5879 31.399C25.0641 31.9229 24.3538 32.2175 23.6129 32.218H13.8956C13.1545 32.218 12.4439 31.9237 11.9199 31.3997C11.3959 30.8757 11.1016 30.165 11.1016 29.424V26.322C12.657 25.9876 15.0263 25.882 17.9017 27.0304L19.6838 25.332L20.8981 28.412C20.8981 28.412 21.2237 27.279 22.2753 27.4396C23.3269 27.6002 25.0297 28.17 25.7579 27.6838C25.9541 27.5706 26.1847 27.5323 26.4069 27.576Z" fill="#67C23A"/>
<path d="M23.004 21.6907C23.6006 21.6907 24.0842 21.2071 24.0842 20.6105C24.0842 20.0139 23.6006 19.5303 23.004 19.5303C22.4074 19.5303 21.9238 20.0139 21.9238 20.6105C21.9238 21.2071 22.4074 21.6907 23.004 21.6907Z" fill="#67C23A"/>
</svg>
