<svg width="45" height="44" viewBox="0 0 45 44" fill="none" xmlns="http://www.w3.org/2000/svg">
<g clip-path="url(#clip0_7098_10777)">
<path d="M43.458 35.3483V42.9996H1.86378C1.42292 42.9981 1.0005 42.8053 0.688769 42.4631C0.377037 42.121 0.201325 41.6574 0.200008 41.1735V35.3483C0.198512 35.1558 0.226636 34.9644 0.283196 34.7822L1.03189 33.8691H42.6261L43.3748 34.7822C43.4313 34.9644 43.4595 35.1558 43.458 35.3483Z" fill="#1677FF"/>
<path d="M43.3746 34.7827H0.282959C0.334828 34.6171 0.407636 34.4603 0.499249 34.317L7.1876 23.6983C7.34184 23.4558 7.5472 23.2577 7.78618 23.121C8.02517 22.9843 8.29071 22.9129 8.5602 22.9131H35.0973C35.3668 22.9129 35.6323 22.9843 35.8713 23.121C36.1103 23.2577 36.3157 23.4558 36.4699 23.6983L43.1583 34.317C43.2499 34.4603 43.3227 34.6171 43.3746 34.7827Z" fill="#4096FF"/>
<path d="M24.3246 1.91304V29.3044H19.3333V1.91304C19.3333 1.67089 19.4209 1.43865 19.5769 1.26742C19.7329 1.0962 19.9445 1 20.1651 1H23.4927C23.7133 1 23.9249 1.0962 24.0809 1.26742C24.2369 1.43865 24.3246 1.67089 24.3246 1.91304Z" fill="#BAE0FF"/>
<path d="M32.6437 4.65234H11.0147C10.5553 4.65234 10.1829 5.06113 10.1829 5.56539V18.348C10.1829 18.8523 10.5553 19.261 11.0147 19.261H32.6437C33.1032 19.261 33.4756 18.8523 33.4756 18.348V5.56539C33.4756 5.06113 33.1032 4.65234 32.6437 4.65234Z" fill="#4096FF"/>
<path d="M24.5074 11.0935V12.4443H18.2V11.0935H24.5074ZM20.66 8.68262V15.4464H19.1154V8.68262H20.66ZM25.2938 8.68262L21.9498 12.3584L21.5912 12.8241L20.5184 14.0163V11.4469H20.7544L23.2553 8.68262H25.2938ZM23.2302 15.4464L21.091 12.4872L22.2361 11.546L25.0799 15.4464H23.2302Z" fill="white"/>
<path d="M25.9884 30.2177H17.6695C17.4489 30.2177 17.2373 30.1215 17.0813 29.9503C16.9253 29.779 16.8376 29.5468 16.8376 29.3046C16.8376 29.0625 16.9253 28.8303 17.0813 28.659C17.2373 28.4878 17.4489 28.3916 17.6695 28.3916H25.9884C26.209 28.3916 26.4206 28.4878 26.5766 28.659C26.7326 28.8303 26.8203 29.0625 26.8203 29.3046C26.8203 29.5468 26.7326 29.779 26.5766 29.9503C26.4206 30.1215 26.209 30.2177 25.9884 30.2177Z" fill="#0958D9"/>
</g>
<defs>
<clipPath id="clip0_7098_10777">
<rect width="44" height="44" fill="white" transform="translate(0.199951)"/>
</clipPath>
</defs>
</svg>
