<svg width="44" height="44" viewBox="0 0 44 44" fill="none" xmlns="http://www.w3.org/2000/svg">
<path d="M42.3727 9.34347V29.4023C42.3727 29.7776 42.0621 30.0882 41.6869 30.0882H2.31332C1.93803 30.0882 1.62744 29.7776 1.62744 29.4023V4.38053C1.62744 3.20935 2.57215 2.26465 3.74332 2.26465H10.9257C12.0904 2.26465 13.0416 3.20935 13.0416 4.38053V5.11171C13.0416 6.28288 13.9863 7.22759 15.1574 7.22759H40.2569C41.428 7.22759 42.3727 8.1723 42.3727 9.34347Z" fill="#BAE0FF"/>
<path d="M36.8726 31.9778H7.12732C6.63137 31.9778 6.15573 31.7808 5.80503 31.4301C5.45434 31.0794 5.25732 30.6038 5.25732 30.1078V11.5243C5.25732 11.0283 5.45434 10.5527 5.80503 10.202C6.15573 9.85131 6.63137 9.6543 7.12732 9.6543H36.8726C37.3686 9.6543 37.8442 9.85131 38.1949 10.202C38.5456 10.5527 38.7426 11.0283 38.7426 11.5243V30.1078C38.7426 30.6038 38.5456 31.0794 38.1949 31.4301C37.8442 31.7808 37.3686 31.9778 36.8726 31.9778Z" fill="white"/>
<path d="M42.3727 14.6881V39.7746C42.3727 40.8552 41.4927 41.7352 40.4121 41.7352H3.58803C2.50744 41.7352 1.62744 40.8552 1.62744 39.7746V19.6511C1.62744 18.564 2.50744 17.6905 3.58803 17.6905H19.3827C19.9069 17.6905 20.4051 17.4834 20.7739 17.1081L24.5657 13.3034C24.9345 12.9346 25.4327 12.7275 25.9504 12.7275H40.4121C41.4927 12.7275 42.3727 13.6011 42.3727 14.6881Z" fill="#4096FF"/>
<path fill-rule="evenodd" clip-rule="evenodd" d="M22 20.7969C25.7495 20.7969 28.7891 23.8113 28.7891 27.5297C28.7891 30.3808 27.0022 32.818 24.4784 33.7999L22.3867 36.6354C22.3431 36.6947 22.2852 36.7432 22.2179 36.7766C22.1506 36.8101 22.0758 36.8275 22 36.8275C21.9242 36.8275 21.8494 36.8101 21.7821 36.7766C21.7148 36.7432 21.6569 36.6947 21.6133 36.6354L19.5216 33.7999C16.9978 32.818 15.2109 30.3808 15.2109 27.5297C15.2109 23.8113 18.2505 20.7969 22 20.7969Z" fill="white"/>
<path d="M24.8064 26.6253V27.856H18.499V26.6253H24.8064ZM20.9591 24.4287V30.5913H19.4145V24.4287H20.9591ZM25.5929 24.4287L22.2489 27.7778L21.8902 28.2021L20.8175 29.2883V26.9473H21.0534L23.5544 24.4287H25.5929ZM23.5292 30.5913L21.3901 27.8951L22.5351 27.0376L25.379 30.5913H23.5292Z" fill="#488FF7"/>
</svg>
