<svg width="186" height="180" viewBox="0 0 186 180" fill="none" xmlns="http://www.w3.org/2000/svg">
<path d="M92.9998 180C144.255 180 185.805 156.011 185.805 126.419C185.805 96.827 144.255 72.8379 92.9998 72.8379C41.745 72.8379 0.194824 96.827 0.194824 126.419C0.194824 156.011 41.745 180 92.9998 180Z" fill="#F0F0F0"/>
<path d="M146.297 145.012C140.211 141.499 140.211 135.803 146.297 132.289C152.382 128.776 162.249 128.776 168.335 132.289C174.421 135.803 174.421 141.499 168.335 145.012C162.249 148.526 152.382 148.526 146.297 145.012Z" fill="#E0E0E0"/>
<path d="M22.5198 145.501L6.51196 136.26C5.60995 135.74 5.60995 134.893 6.51196 134.373L99.6242 80.6147C100.13 80.3582 100.69 80.2246 101.257 80.2246C101.824 80.2246 102.384 80.3582 102.89 80.6147L118.901 89.8554C119.803 90.3753 119.803 91.2222 118.901 91.7421L25.7891 145.501C25.2823 145.757 24.7223 145.891 24.1544 145.891C23.5865 145.891 23.0265 145.757 22.5198 145.501Z" fill="#E0E0E0"/>
<path d="M80.0596 129.027L93.8222 121.07C95.2402 120.251 95.9492 119.18 95.9492 118.104C95.9492 117.029 95.9492 116.19 95.9492 116.19L81.6746 108.139C81.2758 107.881 80.9438 107.533 80.7055 107.122C80.4673 106.711 80.3296 106.25 80.3038 105.776V88.8027L56.2764 102.691V119.656C56.304 120.13 56.4425 120.591 56.6806 121.001C56.9186 121.412 57.2497 121.76 57.6471 122.02L69.7948 129.015C72.6229 130.666 77.2236 130.666 80.0596 129.027Z" fill="#1677FF"/>
<g opacity="0.6">
<path d="M80.0596 129.027L93.8222 121.07C95.2402 120.251 95.9492 119.18 95.9492 118.104C95.9492 117.029 95.9492 116.19 95.9492 116.19L81.6746 108.139C81.2758 107.881 80.9438 107.533 80.7055 107.122C80.4673 106.711 80.3296 106.25 80.3038 105.776V88.8027L56.2764 102.691V119.656C56.304 120.13 56.4425 120.591 56.6806 121.001C56.9186 121.412 57.2497 121.76 57.6471 122.02L69.7948 129.015C72.6229 130.666 77.2236 130.666 80.0596 129.027Z" fill="black"/>
</g>
<path opacity="0.3" d="M62.0396 122.661V124.568L57.6359 122.027C57.2385 121.768 56.9077 121.419 56.6703 121.009C56.4328 120.598 56.2954 120.137 56.269 119.664V102.691L60.8461 100.048C60.9406 101.21 61.043 102.411 61.1415 103.593L57.9234 105.444V118.699C57.9489 119.173 58.0864 119.634 58.3247 120.045C58.563 120.456 58.8952 120.804 59.2941 121.062L62.0396 122.661Z" fill="black"/>
<path d="M57.9255 118.703C57.9526 119.177 58.0908 119.637 58.3289 120.048C58.567 120.459 58.8984 120.807 59.2963 121.066L69.7817 127.108C72.6177 128.743 77.2184 128.747 80.0584 127.108L93.8446 119.152C96.6846 117.513 96.6846 114.858 93.8446 113.22L83.3513 107.177C82.9544 106.918 82.6239 106.569 82.3865 106.158C82.1491 105.748 82.0114 105.288 81.9845 104.814V91.5557L57.957 105.444L57.9255 118.703Z" fill="#1677FF"/>
<path opacity="0.3" d="M57.9255 118.703C57.9526 119.177 58.0908 119.637 58.3289 120.048C58.567 120.459 58.8984 120.807 59.2963 121.066L69.7817 127.108C72.6177 128.743 77.2184 128.747 80.0584 127.108L93.8446 119.152C96.6846 117.513 96.6846 114.858 93.8446 113.22L83.3513 107.177C82.9544 106.918 82.6239 106.569 82.3865 106.158C82.1491 105.748 82.0114 105.288 81.9845 104.814V91.5557L57.957 105.444L57.9255 118.703Z" fill="black"/>
<path opacity="0.5" d="M86.1264 108.796L83.3337 107.185C82.9368 106.926 82.6063 106.577 82.3689 106.166C82.1315 105.756 81.9938 105.295 81.9669 104.822V91.5557L57.9395 105.444V118.703C57.9665 119.177 58.1047 119.637 58.3428 120.048C58.5809 120.459 58.9123 120.807 59.3102 121.066L62.0675 122.642L86.1264 108.796Z" fill="black"/>
<path d="M95.9527 116.193V118.108C95.9527 119.183 95.2398 120.25 93.8257 121.074L80.0395 129.026C78.5307 129.832 76.8457 130.25 75.1355 130.244V128.337C76.8457 128.343 78.5307 127.925 80.0395 127.12L93.8257 119.159C95.2398 118.344 95.9527 117.269 95.9527 116.193Z" fill="#1677FF"/>
<path opacity="0.5" d="M95.9527 116.193V118.108C95.9527 119.183 95.2398 120.25 93.8257 121.074L80.0395 129.026C78.5307 129.832 76.8457 130.25 75.1355 130.244V128.337C76.8457 128.343 78.5307 127.925 80.0395 127.12L93.8257 119.159C95.2398 118.344 95.9527 117.269 95.9527 116.193Z" fill="black"/>
<path d="M19.3222 135.18C19.8416 135.431 20.4127 135.556 20.9894 135.546C21.5662 135.535 22.1325 135.39 22.6427 135.121L115.601 81.4528C116.1 81.1277 116.515 80.6897 116.812 80.1744C117.11 79.6591 117.282 79.081 117.315 78.4868V3.28481C117.297 2.70672 117.143 2.14102 116.865 1.6338C116.587 1.12659 116.193 0.692209 115.716 0.366069C115.197 0.114905 114.626 -0.0102896 114.05 0.000661292C113.473 0.0116122 112.908 0.1584 112.399 0.429091L19.4403 54.1127C18.9436 54.4398 18.5313 54.8798 18.2369 55.3966C17.9426 55.9134 17.7746 56.4925 17.7466 57.0866V132.277C17.7642 132.85 17.9158 133.411 18.1894 133.915C18.4631 134.42 18.851 134.853 19.3222 135.18Z" fill="#1677FF"/>
<path d="M22.6553 135.117L115.614 81.4495C116.113 81.1251 116.528 80.6873 116.826 80.1719C117.124 79.6565 117.296 79.0779 117.327 78.4835V3.28552C117.327 2.19444 116.559 1.74934 115.614 2.29685L22.6553 55.9647C22.1567 56.2896 21.7416 56.7275 21.4439 57.2428C21.1462 57.7581 20.9742 58.3364 20.9419 58.9307V134.129C20.9419 135.22 21.71 135.665 22.6553 135.117Z" fill="#1677FF"/>
<path opacity="0.5" d="M22.6553 135.117L115.614 81.4495C116.113 81.1251 116.528 80.6873 116.826 80.1719C117.124 79.6565 117.296 79.0779 117.327 78.4835V3.28552C117.327 2.19444 116.559 1.74934 115.614 2.29685L22.6553 55.9647C22.1567 56.2896 21.7416 56.7275 21.4439 57.2428C21.1462 57.7581 20.9742 58.3364 20.9419 58.9307V134.129C20.9419 135.22 21.71 135.665 22.6553 135.117Z" fill="black"/>
<path d="M22.4024 137.07C21.9149 137.283 21.3871 137.387 20.8554 137.376C20.3236 137.365 19.8005 137.239 19.3222 137.007C18.8499 136.679 18.4614 136.245 18.1877 135.739C17.914 135.233 17.7629 134.671 17.7466 134.096V127.25L20.9568 129.109V135.955C20.9371 136.952 21.5713 137.405 22.4024 137.07Z" fill="#1677FF"/>
<path opacity="0.5" d="M22.4024 137.07C21.9149 137.283 21.3871 137.387 20.8554 137.376C20.3236 137.365 19.8005 137.239 19.3222 137.007C18.8499 136.679 18.4614 136.245 18.1877 135.739C17.914 135.233 17.7629 134.671 17.7466 134.096V127.25L20.9568 129.109V135.955C20.9371 136.952 21.5713 137.405 22.4024 137.07Z" fill="black"/>
<path d="M20.937 129.109V135.955C20.937 137.046 21.7248 137.487 22.6504 136.944L115.609 83.2759C116.105 82.9523 116.519 82.5169 116.817 82.0045C117.114 81.4921 117.287 80.9171 117.323 80.3256V73.4482L20.937 129.109Z" fill="#1677FF"/>
<path opacity="0.3" d="M20.9419 129.093V135.955C20.9419 137.046 21.7297 137.487 22.6553 136.944L115.614 83.2759C116.11 82.9519 116.522 82.5162 116.819 82.0039C117.116 81.4915 117.289 80.9167 117.323 80.3256V73.4482L20.9419 129.093Z" fill="black"/>
<path d="M24.1499 120.503V59.997C24.1682 59.6405 24.2706 59.2934 24.4485 58.984C24.6265 58.6746 24.8751 58.4117 25.174 58.2166L113.067 7.45569C113.634 7.12876 114.095 7.39267 114.095 8.04653V68.5839C114.076 68.9406 113.973 69.2878 113.794 69.5972C113.616 69.9066 113.367 70.1694 113.067 70.3642L25.178 121.113C24.6108 121.44 24.1499 121.172 24.1499 120.503Z" fill="#1677FF"/>
<path d="M24.1499 120.503V59.997C24.1682 59.6405 24.2706 59.2934 24.4485 58.984C24.6265 58.6746 24.8751 58.4117 25.174 58.2166L113.067 7.45569C113.634 7.12876 114.095 7.39267 114.095 8.04653V68.5839C114.076 68.9406 113.973 69.2878 113.794 69.5972C113.616 69.9066 113.367 70.1694 113.067 70.3642L25.178 121.113C24.6108 121.44 24.1499 121.172 24.1499 120.503Z" fill="#263238"/>
<path d="M69.1308 103.459C68.6629 103.763 68.2735 104.174 67.9942 104.657C67.715 105.14 67.5537 105.682 67.5237 106.24C67.5237 107.264 68.2445 107.681 69.1308 107.169C69.5992 106.865 69.9889 106.454 70.2682 105.97C70.5475 105.486 70.7084 104.943 70.7378 104.385C70.7378 103.36 70.017 102.947 69.1308 103.459Z" fill="#1677FF"/>
<path opacity="0.7" d="M21.4452 57.236C21.14 57.7491 20.9655 58.3294 20.9371 58.9258V129.11L17.7466 127.25V57.0863C17.7672 56.4879 17.9408 55.9048 18.2508 55.3926L21.4452 57.236Z" fill="black"/>
<path opacity="0.3" d="M117.306 3.00112C117.184 2.1188 116.471 1.81944 115.608 2.29605L22.6495 55.9639C22.1455 56.2791 21.7295 56.7168 21.4402 57.2361L18.2261 55.3809C18.5172 54.8617 18.9345 54.4241 19.4393 54.1086L112.398 0.44476C112.907 0.17403 113.474 0.0272361 114.051 0.0162861C114.628 0.00533619 115.199 0.130539 115.718 0.381737C116.155 0.679266 116.523 1.06709 116.797 1.51899C117.071 1.97089 117.244 2.47633 117.306 3.00112Z" fill="black"/>
<path d="M122.322 12.2573C122.184 12.1881 122.03 12.1577 121.876 12.1695C121.722 12.1813 121.574 12.2348 121.448 12.3243L33.7358 62.9946C33.3897 63.2236 33.1024 63.5308 32.8971 63.8914C32.6918 64.2521 32.5743 64.656 32.5542 65.0704V125.206C32.5419 125.409 32.5822 125.612 32.6712 125.795C32.7602 125.977 32.8949 126.134 33.0623 126.25C33.2553 126.356 34.2873 126.955 34.5945 127.12C34.7032 127.176 34.8247 127.201 34.9465 127.194C35.0683 127.187 35.186 127.148 35.2878 127.081L122.98 76.4106C123.326 76.1816 123.613 75.8744 123.819 75.5138C124.024 75.1532 124.142 74.7493 124.162 74.3348V13.8881C124.179 13.7353 124.154 13.5807 124.089 13.4415C124.023 13.3024 123.92 13.1842 123.791 13.1003C123.595 12.9703 122.543 12.3873 122.322 12.2573Z" fill="#1677FF"/>
<path d="M35.2666 63.8475L122.983 13.1969C123.644 12.803 124.164 13.126 124.164 13.8901V74.3368C124.144 74.7513 124.027 75.1552 123.821 75.5159C123.616 75.8765 123.329 76.1837 122.983 76.4127L35.2666 127.083C34.6049 127.477 34.085 126.843 34.085 126.079V65.9233C34.1058 65.509 34.2235 65.1053 34.4288 64.7448C34.634 64.3842 34.921 64.0769 35.2666 63.8475Z" fill="#FAFAFA"/>
<path d="M123.518 13.4242C123.751 13.4242 123.786 13.7156 123.786 13.889V74.3357C123.765 74.6828 123.663 75.0201 123.489 75.3209C123.314 75.6218 123.072 75.8779 122.782 76.0688L35.0776 126.739C35.0187 126.777 34.9507 126.799 34.8806 126.802C34.66 126.802 34.4867 126.463 34.4867 126.077V65.9221C34.5057 65.5752 34.6045 65.2373 34.7752 64.9346C34.946 64.632 35.1843 64.3728 35.4715 64.1772L123.179 13.5345C123.281 13.469 123.398 13.431 123.518 13.4242ZM123.518 13.0303C123.328 13.0384 123.144 13.0953 122.983 13.1957L35.2666 63.8463C34.921 64.0757 34.634 64.3831 34.4288 64.7436C34.2235 65.1041 34.1058 65.5078 34.085 65.9221V126.077C34.085 126.684 34.4237 127.196 34.8727 127.196C35.0118 127.193 35.1477 127.154 35.2666 127.082L122.979 76.4115C123.325 76.1826 123.612 75.8753 123.817 75.5147C124.023 75.1541 124.14 74.7502 124.16 74.3357V13.889C124.16 13.3454 123.892 13.0303 123.499 13.0303H123.518Z" fill="#E0E0E0"/>
<path d="M33.0382 126.251C33.1682 126.318 34.1018 126.849 34.5114 127.086C34.3643 126.964 34.2478 126.809 34.1712 126.634C34.0946 126.459 34.06 126.268 34.0702 126.077V69.8492L32.5341 68.9512V125.207C32.5213 125.41 32.5611 125.612 32.6494 125.795C32.7377 125.978 32.8716 126.135 33.0382 126.251Z" fill="#F0F0F0"/>
<path d="M124.18 13.878C124.18 13.1217 123.64 12.8145 122.998 13.1966L35.2666 63.8472C34.921 64.0766 34.634 64.384 34.4288 64.7445C34.2235 65.105 34.1058 65.5087 34.085 65.923V69.862L124.18 17.8169V13.878Z" fill="#1677FF"/>
<g opacity="0.4">
<path d="M122.983 13.1962L35.2672 63.8428C34.9152 64.0648 34.6251 64.3725 34.4243 64.737L32.8999 63.8507C33.1004 63.499 33.388 63.2046 33.735 62.996L121.447 12.3256C121.572 12.2355 121.72 12.1813 121.874 12.1688C122.028 12.1563 122.183 12.186 122.321 12.2547C122.534 12.3887 123.531 12.9519 123.787 13.0898C123.654 13.0407 123.512 13.0247 123.372 13.0432C123.232 13.0618 123.098 13.1143 122.983 13.1962Z" fill="white"/>
</g>
<path opacity="0.15" d="M32.5344 68.9554V65.052C32.5506 64.6266 32.6768 64.2126 32.9007 63.8506L34.429 64.7329C34.2083 65.0887 34.0847 65.4961 34.0706 65.9146V69.8535L32.5344 68.9554Z" fill="black"/>
<path d="M105.684 59.2217L53.1504 89.5514C52.8949 89.7172 52.6822 89.9409 52.5295 90.2045C52.3769 90.468 52.2886 90.7638 52.272 91.0679V106.13C52.2886 106.434 52.3769 106.73 52.5295 106.994C52.6822 107.257 52.8949 107.481 53.1504 107.647L54.6826 108.529C54.9549 108.667 55.2558 108.739 55.561 108.739C55.8662 108.739 56.167 108.667 56.4394 108.529L108.965 78.1994C109.22 78.0328 109.433 77.8083 109.586 77.5442C109.738 77.28 109.827 76.9836 109.843 76.679V61.6126C109.827 61.3086 109.738 61.0127 109.586 60.7492C109.433 60.4857 109.22 60.2619 108.965 60.0961L107.429 59.2138C107.158 59.0783 106.858 59.0084 106.555 59.0098C106.252 59.0112 105.954 59.0837 105.684 59.2217Z" fill="#1677FF"/>
<path opacity="0.5" d="M109.841 61.4796C109.778 61.0267 109.412 60.8612 108.97 61.1173L56.437 91.447C56.1779 91.608 55.9649 91.8332 55.8185 92.1008L52.5295 90.2023C52.677 89.9388 52.8883 89.7167 53.144 89.5563L105.681 59.2266C105.953 59.0885 106.253 59.0166 106.558 59.0166C106.862 59.0166 107.163 59.0885 107.434 59.2266L108.97 60.1089C109.205 60.2624 109.403 60.464 109.554 60.7004C109.704 60.9367 109.802 61.2024 109.841 61.4796Z" fill="white"/>
<path d="M56.2897 108.603C56.0325 108.704 55.7568 108.75 55.4806 108.738C55.2044 108.726 54.9338 108.656 54.6865 108.532L53.1504 107.65C52.8953 107.483 52.6829 107.26 52.5304 106.996C52.3778 106.733 52.2893 106.437 52.272 106.133V91.0707C52.2838 90.7632 52.3732 90.4638 52.5319 90.2002L55.8209 92.0988C55.6611 92.359 55.5715 92.6562 55.561 92.9614V108.028C55.561 108.528 55.8761 108.76 56.2897 108.603Z" fill="#263238"/>
<path d="M56.4406 91.4461L108.974 61.1163C109.459 60.8367 109.852 61.0612 109.852 61.6205V76.6869C109.836 76.9915 109.747 77.2879 109.595 77.5521C109.442 77.8162 109.23 78.0407 108.974 78.2073L56.4484 108.537C55.964 108.817 55.5701 108.588 55.5701 108.029V92.9665C55.5859 92.6626 55.6729 92.3666 55.8241 92.1025C55.9753 91.8384 56.1865 91.6136 56.4406 91.4461Z" fill="#1677FF"/>
<path d="M91.7543 67.2656L53.1528 89.556C52.897 89.7164 52.6857 89.9385 52.5383 90.202L55.8273 92.1005C55.9736 91.8329 56.1867 91.6077 56.4457 91.4467L95.0472 69.1602L91.7543 67.2656Z" fill="#455A64"/>
<path d="M95.0416 69.1592L56.4401 91.4456C56.1846 91.6122 55.9719 91.8367 55.8193 92.1009C55.6667 92.365 55.5785 92.6614 55.5618 92.966V108.025C55.5618 108.584 55.9557 108.812 56.4401 108.533L95.0416 86.2462V69.1592Z" fill="#37474F"/>
<path d="M65.3393 89.6101L85.2585 78.1124C86.0817 77.6358 86.7513 77.9746 86.7513 78.8687C86.7145 79.3709 86.5598 79.8573 86.2997 80.2885C86.0396 80.7196 85.6815 81.0834 85.2545 81.3502L65.3393 92.8519C64.5161 93.3285 63.8425 92.9897 63.8425 92.0956C63.8797 91.593 64.0345 91.1061 64.2945 90.6744C64.5545 90.2426 64.9124 89.8781 65.3393 89.6101Z" fill="#1677FF"/>
<path d="M69.42 93.4196C69.4237 93.4154 69.4283 93.412 69.4334 93.4097C69.4385 93.4074 69.444 93.4063 69.4496 93.4062C69.4552 93.4063 69.4607 93.4074 69.4658 93.4097C69.4709 93.412 69.4754 93.4154 69.4791 93.4196C69.4968 93.4464 69.5051 93.4782 69.5028 93.5102V95.7514C69.503 95.9679 69.4846 96.1841 69.4476 96.3974C69.4151 96.5923 69.3595 96.7827 69.2822 96.9646C69.2116 97.1312 69.1188 97.2876 69.0065 97.4294C68.8957 97.561 68.7623 97.6717 68.6126 97.7563C68.4953 97.8327 68.3586 97.8737 68.2187 97.8745C68.1652 97.8703 68.1132 97.8551 68.0658 97.8301C68.0184 97.805 67.9766 97.7705 67.943 97.7288C67.8565 97.6129 67.7997 97.4777 67.7775 97.3349C67.7398 97.1442 67.7227 96.9501 67.7263 96.7558V94.5107C67.7262 94.4714 67.7342 94.4325 67.7499 94.3964C67.7596 94.364 67.7806 94.336 67.809 94.3177L68.0572 94.1719C68.0652 94.1644 68.0758 94.1603 68.0867 94.1603C68.0977 94.1603 68.1082 94.1644 68.1163 94.1719C68.1345 94.1984 68.1428 94.2305 68.1399 94.2625V96.4762C68.1369 96.598 68.1488 96.7197 68.1753 96.8386C68.1862 96.9146 68.2191 96.9858 68.2699 97.0434C68.2876 97.0645 68.31 97.0812 68.3353 97.0921C68.3606 97.1031 68.3881 97.108 68.4156 97.1064C68.483 97.102 68.5481 97.0803 68.6047 97.0434C68.6748 97.0015 68.7384 96.9498 68.7938 96.8898C68.8552 96.819 68.9057 96.7393 68.9434 96.6534C68.9879 96.5524 69.0209 96.4467 69.0419 96.3383C69.0649 96.2083 69.0754 96.0764 69.0734 95.9444V93.7268C69.0747 93.6872 69.084 93.6484 69.101 93.6126C69.1106 93.5801 69.1316 93.5522 69.1601 93.5338L69.42 93.4196Z" fill="#FAFAFA"/>
<path d="M70.9654 95.538C70.9674 95.509 70.9605 95.4802 70.9457 95.4553C70.9363 95.445 70.9246 95.4372 70.9116 95.4324C70.8986 95.4276 70.8846 95.426 70.8708 95.4277C70.8225 95.4211 70.7734 95.4211 70.7251 95.4277L70.4966 95.471C70.4229 95.4894 70.3458 95.4894 70.2721 95.471C70.2143 95.4524 70.1644 95.415 70.1303 95.3647C70.0918 95.3007 70.0663 95.2298 70.0555 95.1559C70.017 94.9449 70.017 94.7288 70.0555 94.5178C70.085 94.3968 70.1273 94.2793 70.1815 94.1672C70.2355 94.0553 70.3015 93.9497 70.3785 93.8521C70.453 93.7592 70.5437 93.6804 70.6463 93.6197C70.7291 93.5692 70.8218 93.537 70.9181 93.5252C70.988 93.518 71.0583 93.5331 71.119 93.5685C71.1767 93.6038 71.2222 93.6561 71.249 93.7182C71.2807 93.7917 71.2981 93.8706 71.3002 93.9506C71.3043 93.9902 71.296 94.0301 71.2765 94.0648C71.2669 94.0973 71.2459 94.1252 71.2174 94.1436L70.9811 94.2815C70.9703 94.2877 70.9581 94.291 70.9457 94.291C70.9332 94.291 70.921 94.2877 70.9102 94.2815L70.859 94.2421C70.8386 94.226 70.814 94.2164 70.7881 94.2145C70.7375 94.2202 70.6889 94.2377 70.6463 94.2657C70.5845 94.303 70.5298 94.351 70.4848 94.4075C70.4371 94.4695 70.4121 94.546 70.4139 94.6242C70.4083 94.6541 70.4083 94.6848 70.4139 94.7148C70.4215 94.7259 70.4314 94.7352 70.443 94.742C70.4545 94.7488 70.4675 94.753 70.4809 94.7541C70.5239 94.7613 70.5678 94.7613 70.6109 94.7541L70.8314 94.7148C71.0166 94.6793 71.1426 94.7148 71.2253 94.8172C71.3122 94.9631 71.3521 95.1323 71.3396 95.3016C71.3385 95.4187 71.3227 95.5352 71.2923 95.6483C71.2611 95.7711 71.2162 95.89 71.1584 96.0028C71.1005 96.1194 71.0277 96.228 70.9417 96.3258C70.8601 96.4215 70.7629 96.5028 70.6542 96.5661C70.5676 96.6214 70.469 96.6552 70.3666 96.6645C70.2926 96.6671 70.2196 96.6465 70.1579 96.6054C70.0971 96.5639 70.0503 96.5048 70.024 96.4361C69.9921 96.3614 69.976 96.2809 69.9767 96.1997C69.973 96.1589 69.9812 96.1178 70.0003 96.0816C70.01 96.0491 70.0309 96.0211 70.0594 96.0028L70.2957 95.8649C70.3273 95.8649 70.3509 95.8452 70.3666 95.8649L70.4178 95.9201C70.4283 95.9318 70.441 95.9413 70.4552 95.9481C70.4694 95.9549 70.4848 95.9587 70.5006 95.9595C70.556 95.9597 70.61 95.9417 70.6542 95.9082C70.7253 95.8679 70.7892 95.816 70.8433 95.7546C70.8701 95.7222 70.8926 95.6865 70.9102 95.6483C70.938 95.617 70.9571 95.579 70.9654 95.538Z" fill="#FAFAFA"/>
<path d="M71.7689 94.4717C71.7682 94.2671 71.7853 94.0628 71.8201 93.8611C71.853 93.6714 71.9045 93.4854 71.9737 93.3058C72.0317 93.1448 72.1112 92.9924 72.2101 92.8528C72.2926 92.7328 72.4001 92.632 72.5252 92.5574C72.6165 92.496 72.7279 92.472 72.8364 92.4904C72.9326 92.5127 73.017 92.5703 73.0727 92.6519C73.1468 92.7588 73.199 92.8793 73.2263 93.0064C73.2641 93.1718 73.2826 93.341 73.2815 93.5106V93.7548C73.2827 93.7959 73.2732 93.8367 73.2539 93.873C73.2442 93.9054 73.2233 93.9334 73.1948 93.9517L72.1707 94.5465C72.1683 94.6159 72.1776 94.6851 72.1983 94.7513C72.2135 94.7959 72.2408 94.8355 72.277 94.8656C72.3094 94.8912 72.3501 94.9039 72.3913 94.901C72.4389 94.8954 72.4846 94.8793 72.5252 94.8538C72.5848 94.8214 72.6381 94.7787 72.6828 94.7277C72.7231 94.6823 72.7575 94.632 72.7852 94.578C72.802 94.5469 72.8204 94.5167 72.8403 94.4874C72.8572 94.4674 72.8772 94.4501 72.8994 94.4362L73.1436 94.2944C73.152 94.2877 73.1624 94.2841 73.1731 94.2841C73.1839 94.2841 73.1943 94.2877 73.2027 94.2944C73.213 94.3069 73.2205 94.3214 73.2246 94.3371C73.2287 94.3528 73.2293 94.3691 73.2263 94.385C73.222 94.4618 73.2061 94.5375 73.1791 94.6095C73.1451 94.7188 73.1002 94.8244 73.0451 94.9247C72.9835 95.04 72.9095 95.1483 72.8246 95.2477C72.7398 95.3491 72.6386 95.4357 72.5252 95.5037C72.4321 95.5646 72.3206 95.5911 72.2101 95.5785C72.1132 95.5552 72.0288 95.4961 71.9737 95.4131C71.8962 95.2936 71.8439 95.1596 71.8201 95.0192C71.7843 94.8389 71.7672 94.6555 71.7689 94.4717ZM72.5252 93.2152C72.4646 93.2478 72.4121 93.2935 72.3716 93.3491C72.3279 93.4042 72.2921 93.4652 72.2652 93.5303C72.2376 93.5954 72.2152 93.6625 72.1983 93.7312C72.1844 93.7934 72.1752 93.8566 72.1707 93.9202L72.8639 93.5263C72.8599 93.472 72.852 93.418 72.8403 93.3648C72.8343 93.3173 72.8152 93.2723 72.7852 93.2349C72.7734 93.2178 72.7582 93.2035 72.7406 93.1926C72.7229 93.1818 72.7033 93.1747 72.6828 93.1718C72.6268 93.1671 72.5709 93.1824 72.5252 93.2152Z" fill="#FAFAFA"/>
<path d="M74.5188 92.1163C74.3994 92.1844 74.3054 92.2895 74.2509 92.4157C74.1896 92.5819 74.1615 92.7586 74.1682 92.9356V94.3576C74.1688 94.3982 74.1607 94.4385 74.1446 94.4757C74.1349 94.5082 74.114 94.5362 74.0855 94.5545L73.8531 94.6884C73.8494 94.6926 73.8449 94.696 73.8398 94.6983C73.8347 94.7006 73.8292 94.7018 73.8236 94.7018C73.818 94.7018 73.8125 94.7006 73.8074 94.6983C73.8023 94.696 73.7977 94.6926 73.794 94.6884C73.7764 94.6617 73.7681 94.6298 73.7704 94.5979V92.0494C73.7706 92.0088 73.7786 91.9687 73.794 91.9312C73.805 91.8994 73.8257 91.8719 73.8531 91.8524L74.0855 91.7185C74.0935 91.711 74.1041 91.7069 74.1151 91.7069C74.126 91.7069 74.1366 91.711 74.1446 91.7185C74.1628 91.7435 74.1713 91.7743 74.1682 91.8052V91.9312C74.2152 91.8255 74.2733 91.7252 74.3415 91.6318C74.4038 91.5456 74.4846 91.4743 74.5779 91.4231L74.7197 91.3404C74.727 91.3331 74.7369 91.3291 74.7473 91.3291C74.7576 91.3291 74.7675 91.3331 74.7748 91.3404C74.7938 91.3666 74.8035 91.3985 74.8024 91.431V91.7894C74.8017 91.8303 74.7923 91.8706 74.7748 91.9076C74.7649 91.9388 74.7456 91.9663 74.7197 91.9863L74.5188 92.1163Z" fill="#FAFAFA"/>
<path d="M77.4561 91.926C77.4598 91.9218 77.4643 91.9184 77.4694 91.9161C77.4745 91.9138 77.48 91.9126 77.4856 91.9126C77.4912 91.9126 77.4967 91.9138 77.5018 91.9161C77.5069 91.9184 77.5115 91.9218 77.5152 91.926C77.5328 91.9528 77.5411 91.9846 77.5388 92.0166V92.4105C77.5386 92.451 77.5306 92.4911 77.5152 92.5286C77.5016 92.5579 77.4814 92.5835 77.4561 92.6035L76.109 93.3913C76.101 93.3987 76.0904 93.4029 76.0794 93.4029C76.0685 93.4029 76.0579 93.3987 76.0499 93.3913C76.0323 93.366 76.0239 93.3353 76.0263 93.3046V89.7596C76.0265 89.719 76.0345 89.6789 76.0499 89.6414C76.0609 89.6107 76.0817 89.5844 76.109 89.5666L76.3571 89.4208C76.3652 89.4133 76.3757 89.4092 76.3867 89.4092C76.3976 89.4092 76.4082 89.4133 76.4162 89.4208C76.4338 89.4461 76.4422 89.4767 76.4398 89.5075V92.505L77.4561 91.926Z" fill="#FAFAFA"/>
<path d="M78.6668 89.0117C78.7555 88.9503 78.8625 88.9211 78.9701 88.929C79.0623 88.9363 79.1483 88.9785 79.2104 89.0472C79.2838 89.1315 79.3376 89.231 79.3679 89.3386C79.41 89.4781 79.4338 89.6224 79.4388 89.768C79.4388 89.7995 79.4388 89.8428 79.4388 89.894V90.1973C79.4388 90.2446 79.4388 90.2879 79.4388 90.3234C79.431 90.4946 79.4073 90.6647 79.3679 90.8315C79.3315 90.994 79.2787 91.1523 79.2104 91.3042C79.1479 91.4454 79.0672 91.5779 78.9701 91.698C78.887 91.8069 78.7841 91.8992 78.6668 91.9698C78.5757 92.0291 78.4681 92.058 78.3596 92.0525C78.2686 92.0447 78.1841 92.0024 78.1232 91.9344C78.0477 91.8531 77.9936 91.7543 77.9657 91.6468C77.9236 91.5074 77.8998 91.3631 77.8948 91.2175C77.8948 91.186 77.8948 91.1466 77.8948 91.0954V90.7921C77.8948 90.7409 77.8948 90.6976 77.8948 90.6661C77.8994 90.4935 77.9218 90.3219 77.9617 90.154C78.0001 89.9903 78.0542 89.8307 78.1232 89.6774C78.1858 89.537 78.2652 89.4048 78.3596 89.2835C78.4431 89.1735 78.5475 89.0812 78.6668 89.0117ZM79.0371 90.0279C79.0369 89.9408 79.0222 89.8543 78.9937 89.7719C78.9791 89.7217 78.9487 89.6775 78.9071 89.6459C78.8735 89.6233 78.833 89.6136 78.7928 89.6183C78.7478 89.6268 78.705 89.6442 78.6668 89.6695C78.6205 89.6949 78.5781 89.7267 78.5408 89.764C78.4956 89.811 78.4571 89.864 78.4265 89.9216C78.387 89.9932 78.3578 90.0702 78.3399 90.1501C78.314 90.2507 78.2982 90.3536 78.2926 90.4573C78.2926 90.4888 78.2926 90.5243 78.2926 90.5676V90.8472C78.2926 90.8906 78.2926 90.926 78.2926 90.9497C78.2963 91.0368 78.3122 91.123 78.3399 91.2057C78.3543 91.256 78.3847 91.3003 78.4265 91.3317C78.4429 91.3433 78.4615 91.3514 78.4812 91.3555C78.5008 91.3595 78.5211 91.3595 78.5408 91.3554C78.5854 91.3478 78.6282 91.3318 78.6668 91.3081C78.7125 91.2818 78.7548 91.25 78.7928 91.2136C78.8368 91.1656 78.8751 91.1127 78.9071 91.056C78.945 90.9836 78.9741 90.9069 78.9937 90.8275C79.0195 90.727 79.034 90.624 79.0371 90.5203C79.0394 90.4836 79.0394 90.4468 79.0371 90.41V90.1343C79.0393 90.0989 79.0393 90.0634 79.0371 90.0279Z" fill="#FAFAFA"/>
<path d="M80.6419 91.3156C80.6923 91.2848 80.7375 91.2462 80.7758 91.2013C80.8232 91.1457 80.8642 91.085 80.8979 91.0201C80.937 90.941 80.9674 90.8578 80.9885 90.772C81.0127 90.6754 81.0246 90.5761 81.0239 90.4766V90.2757C81.0239 90.3151 80.9846 90.3623 80.957 90.4175C80.93 90.4751 80.8984 90.5304 80.8625 90.5829C80.8213 90.6383 80.7766 90.6909 80.7285 90.7405C80.6791 90.7923 80.622 90.8361 80.5592 90.8705C80.5187 90.8981 80.473 90.9172 80.425 90.9267C80.3769 90.9362 80.3274 90.9358 80.2795 90.9256C80.1919 90.8982 80.1167 90.8411 80.0668 90.7641C80.0026 90.6623 79.956 90.5505 79.9289 90.4332C79.8953 90.2845 79.8769 90.1327 79.8738 89.9803C79.8738 89.9291 79.8738 89.866 79.8738 89.7912C79.8738 89.7164 79.8738 89.6533 79.8738 89.5982C79.8787 89.425 79.8971 89.2525 79.9289 89.0822C79.9613 88.9146 80.0074 88.7499 80.0668 88.5898C80.1225 88.4509 80.1938 88.3187 80.2795 88.1959C80.3521 88.0874 80.4476 87.996 80.5592 87.9281C80.6115 87.8966 80.6688 87.874 80.7285 87.8611C80.7728 87.8529 80.8182 87.8529 80.8625 87.8611C80.8974 87.871 80.9297 87.8884 80.957 87.9123C80.9822 87.9316 81.0047 87.9541 81.0239 87.9793V87.8532C81.0241 87.8127 81.0322 87.7726 81.0476 87.7351C81.0586 87.7044 81.0793 87.6781 81.1067 87.6602L81.3391 87.5224C81.3471 87.5149 81.3576 87.5107 81.3686 87.5107C81.3796 87.5107 81.3901 87.5149 81.3981 87.5224C81.4172 87.5487 81.4269 87.5805 81.4257 87.613V90.1733C81.4363 90.5567 81.3652 90.9381 81.217 91.2919C81.1007 91.5702 80.8994 91.8046 80.6419 91.9615C80.554 92.0161 80.4537 92.0473 80.3504 92.0521C80.2687 92.0571 80.1874 92.0364 80.118 91.9931C80.0514 91.9432 79.9974 91.8785 79.9604 91.804C79.922 91.7142 79.9007 91.618 79.8974 91.5204C79.8937 91.4795 79.9019 91.4385 79.9211 91.4022C79.9307 91.3697 79.9517 91.3418 79.9801 91.3234L80.1889 91.2053C80.1937 91.2001 80.1995 91.1961 80.2059 91.1933C80.2124 91.1905 80.2193 91.189 80.2263 91.189C80.2333 91.189 80.2403 91.1905 80.2467 91.1933C80.2532 91.1961 80.2589 91.2001 80.2637 91.2053C80.2831 91.2257 80.3003 91.2481 80.3149 91.2722C80.3389 91.3145 80.3785 91.3456 80.4252 91.3589C80.4725 91.3943 80.5434 91.3549 80.6419 91.3156ZM80.2716 89.4052C80.2716 89.5102 80.2716 89.6126 80.2716 89.7124C80.2604 89.8697 80.305 90.026 80.3977 90.1536C80.4327 90.1838 80.4774 90.2004 80.5237 90.2004C80.57 90.2004 80.6147 90.1838 80.6497 90.1536C80.7641 90.0793 80.8533 89.9722 80.9058 89.8463C80.9775 89.682 81.0176 89.5056 81.0239 89.3264C81.0239 89.2673 81.0239 89.1964 81.0239 89.1137C81.0239 89.031 81.0239 88.9601 81.0239 88.9089C81.032 88.7678 80.9901 88.6284 80.9058 88.515C80.8709 88.4829 80.8252 88.4651 80.7778 88.4651C80.7303 88.4651 80.6846 88.4829 80.6497 88.515C80.5377 88.589 80.45 88.6945 80.3977 88.8183C80.3168 89.0035 80.2739 89.2031 80.2716 89.4052Z" fill="#FAFAFA"/>
<path d="M82.3438 85.9083C82.3516 85.9019 82.3613 85.8984 82.3714 85.8984C82.3815 85.8984 82.3912 85.9019 82.399 85.9083C82.4196 85.9338 82.4295 85.9663 82.4265 85.9989V86.4283C82.4268 86.4693 82.4174 86.5098 82.399 86.5464C82.3879 86.576 82.3688 86.602 82.3438 86.6213L82.0799 86.7749C82.0762 86.7791 82.0717 86.7825 82.0666 86.7848C82.0615 86.7871 82.056 86.7882 82.0504 86.7882C82.0448 86.7882 82.0393 86.7871 82.0342 86.7848C82.0291 86.7825 82.0245 86.7791 82.0208 86.7749C82.0105 86.7631 82.0028 86.7493 81.9981 86.7344C81.9933 86.7195 81.9917 86.7038 81.9933 86.6882V86.2589C81.993 86.2179 82.0024 86.1774 82.0208 86.1407C82.0318 86.11 82.0526 86.0837 82.0799 86.0659L82.3438 85.9083ZM82.4108 89.607C82.4109 89.6463 82.4029 89.6852 82.3872 89.7212C82.3746 89.7521 82.3542 89.7793 82.3281 89.8L82.0917 89.9339C82.0884 89.938 82.0842 89.9414 82.0794 89.9436C82.0747 89.9459 82.0694 89.9471 82.0642 89.9471C82.0589 89.9471 82.0537 89.9459 82.0489 89.9436C82.0441 89.9414 82.0399 89.938 82.0366 89.9339C82.016 89.9085 82.0061 89.876 82.009 89.8433V87.2948C82.0088 87.2538 82.0182 87.2133 82.0366 87.1767C82.0477 87.146 82.0667 87.1188 82.0917 87.0979L82.3281 86.964C82.3361 86.9565 82.3466 86.9523 82.3576 86.9523C82.3686 86.9523 82.3791 86.9565 82.3872 86.964C82.4048 86.9893 82.4131 87.0199 82.4108 87.0506V89.607Z" fill="#FAFAFA"/>
<path d="M84.485 88.406C84.4848 88.4465 84.4768 88.4866 84.4613 88.5241C84.4503 88.5549 84.4296 88.5811 84.4023 88.599L84.1659 88.7368C84.1586 88.7441 84.1487 88.7481 84.1384 88.7481C84.128 88.7481 84.1181 88.7441 84.1108 88.7368C84.0902 88.7114 84.0803 88.6789 84.0832 88.6462V87.2598C84.0953 87.0961 84.0655 86.9321 83.9966 86.7831C83.9414 86.6847 83.8548 86.6689 83.7326 86.7398C83.6109 86.8216 83.5206 86.9425 83.4766 87.0825C83.4109 87.2683 83.3788 87.4644 83.3821 87.6615V89.052C83.3819 89.0925 83.3739 89.1326 83.3585 89.1701C83.3488 89.2026 83.3278 89.2305 83.2994 89.2489L83.067 89.3828C83.0633 89.387 83.0587 89.3904 83.0536 89.3927C83.0485 89.395 83.043 89.3962 83.0374 89.3962C83.0318 89.3962 83.0263 89.395 83.0212 89.3927C83.0161 89.3904 83.0116 89.387 83.0079 89.3828C82.9896 89.3578 82.9812 89.327 82.9842 89.2962V86.7477C82.9837 86.7071 82.9917 86.6668 83.0079 86.6295C83.0175 86.597 83.0385 86.5691 83.067 86.5507L83.2994 86.4168C83.3031 86.4126 83.3076 86.4093 83.3127 86.407C83.3178 86.4047 83.3233 86.4035 83.3289 86.4035C83.3345 86.4035 83.34 86.4047 83.3451 86.407C83.3502 86.4093 83.3548 86.4126 83.3585 86.4168C83.3761 86.4436 83.3844 86.4754 83.3821 86.5074V86.6295C83.4339 86.5095 83.4972 86.3947 83.5712 86.2868C83.636 86.1874 83.7238 86.105 83.8272 86.0466C83.9168 85.9811 84.0283 85.9528 84.1384 85.9678C84.1819 85.9788 84.2227 85.9988 84.258 86.0266C84.2933 86.0545 84.3223 86.0894 84.3432 86.1293C84.4004 86.2359 84.4377 86.352 84.4535 86.472C84.4745 86.6286 84.485 86.7866 84.485 86.9446V88.406Z" fill="#FAFAFA"/>
<path d="M104.351 76.9384L100.526 79.1442L101.121 73.7794C100.66 73.5352 100.368 72.9404 100.368 72.0857C100.368 70.5613 101.298 68.7927 102.44 68.1467C103.583 67.5007 104.508 68.1861 104.508 69.7223C104.485 70.6261 104.227 71.5083 103.76 72.2826L104.351 76.9384Z" fill="#455A64"/>
<path d="M104.355 76.939L100.987 74.9971L100.527 79.1487L104.355 76.939Z" fill="#37474F"/>
<path d="M102.432 68.1363C101.599 68.699 100.978 69.5239 100.667 70.48L103.751 72.2604C104.218 71.4861 104.476 70.6039 104.5 69.7001C104.508 68.1757 103.582 67.4785 102.432 68.1363Z" fill="#37474F"/>
<path d="M83.8405 50.2718C82.5288 49.5155 80.7209 49.6218 78.7199 50.7759C74.7258 53.0841 71.488 58.6892 71.488 63.3017C71.488 65.6178 72.3073 67.2406 73.6229 67.989L76.1714 69.4701C77.4791 70.2263 79.2871 70.116 81.292 68.9619C85.2861 66.6577 88.5239 61.0487 88.5239 56.4362C88.5239 54.1319 87.7125 52.4972 86.4047 51.7607" fill="#1677FF"/>
<path d="M81.2885 52.2615C77.2944 54.5697 74.0566 60.1787 74.0566 64.7873C74.0566 69.3958 77.2944 71.2707 81.2885 68.9625C85.2826 66.6543 88.5243 61.0492 88.5204 56.4367C88.5164 51.8243 85.2786 49.9572 81.2885 52.2615Z" fill="#1677FF"/>
<path d="M85.2813 62.4961V63.024C84.3245 64.7319 82.9521 66.1707 81.2912 67.2071C79.7353 68.1012 78.3291 68.1997 77.2971 67.6286V66.5414C77.3499 65.4104 77.6729 64.3084 78.2389 63.3277C78.805 62.3471 79.5977 61.5163 80.5507 60.9048L81.6024 60.2982C82.532 59.7625 83.4379 59.6916 84.1469 60.1052C84.8559 60.5188 85.2813 61.3893 85.2813 62.4961Z" fill="#1677FF"/>
<path opacity="0.4" d="M83.843 50.2735L86.4033 51.7624C85.0956 51.0022 83.2876 51.1085 81.2827 52.2626C78.6673 53.7752 76.3748 56.7018 75.1065 59.8372L72.5422 58.3522C73.8145 55.2011 76.0873 52.2902 78.7185 50.7777C80.7273 49.6275 82.5353 49.5172 83.843 50.2735Z" fill="white"/>
<path opacity="0.2" d="M76.0837 69.411L73.6298 67.9891C72.3142 67.2407 71.4949 65.6257 71.4949 63.3018L74.0591 64.7907C74.0749 67.0359 74.8311 68.6351 76.0837 69.411Z" fill="black"/>
<path opacity="0.1" d="M72.5482 58.3516L75.1124 59.8365C74.4554 61.4062 74.1025 63.0864 74.0725 64.7878L71.5083 63.2989C71.5399 61.5989 71.8927 59.9203 72.5482 58.3516Z" fill="black"/>
<path d="M80.3752 60.0486C80.1308 60.0512 79.8901 59.9887 79.678 59.8674C79.4223 59.6969 79.2173 59.4605 79.0849 59.1832C78.9525 58.9058 78.8975 58.5979 78.9256 58.2918C78.9591 57.5742 79.1639 56.875 79.523 56.2527C79.8821 55.6305 80.385 55.1033 80.9896 54.7153C81.2325 54.5214 81.5283 54.4053 81.8382 54.3822C82.1481 54.3591 82.4578 54.4301 82.7268 54.5858C82.9957 54.7416 83.2114 54.9749 83.3456 55.2552C83.4798 55.5355 83.5263 55.8498 83.479 56.1569C83.445 56.8744 83.2399 57.5734 82.8808 58.1955C82.5218 58.8177 82.0192 59.345 81.415 59.7335C81.1024 59.9286 80.7436 60.0374 80.3752 60.0486Z" fill="white"/>
<path d="M84.1469 60.1003C83.4379 59.6867 82.532 59.7576 81.6024 60.2933L80.5507 60.8999C79.5972 61.5118 78.8041 62.3432 78.2381 63.3246C77.672 64.306 77.3493 65.4087 77.2971 66.5405V67.6316C78.3291 68.2027 79.7353 68.1042 81.2912 67.2101C82.9521 66.1737 84.3245 64.7349 85.2813 63.027V62.4991C85.2813 61.3884 84.8717 60.5179 84.1469 60.1003Z" fill="white"/>
<path d="M165.121 128.243C165.121 128.243 165.645 123.643 167.933 120.07C170.222 116.497 173.365 114.272 176.3 114.039C179.234 113.807 181.605 116.509 178.466 118.372C175.327 120.235 169.749 122.118 167.181 129.051L165.121 128.243Z" fill="#1677FF"/>
<path opacity="0.1" d="M165.121 128.243C165.121 128.243 165.645 123.643 167.933 120.07C170.222 116.497 173.365 114.272 176.3 114.039C179.234 113.807 181.605 116.509 178.466 118.372C175.327 120.235 169.749 122.118 167.181 129.051L165.121 128.243Z" fill="black"/>
<path d="M165.985 127.046H165.954C165.915 127.03 165.884 127 165.868 126.961C165.852 126.923 165.852 126.88 165.867 126.841C168.963 119.219 174.856 116.033 177.542 115.418C177.562 115.413 177.583 115.413 177.604 115.416C177.624 115.42 177.644 115.427 177.661 115.438C177.679 115.449 177.694 115.463 177.706 115.48C177.718 115.497 177.727 115.516 177.731 115.536C177.736 115.556 177.736 115.577 177.733 115.598C177.73 115.618 177.722 115.638 177.711 115.655C177.7 115.673 177.686 115.688 177.669 115.7C177.652 115.712 177.633 115.721 177.613 115.725C174.982 116.332 169.203 119.459 166.159 126.963C166.143 126.995 166.118 127.02 166.086 127.035C166.055 127.05 166.019 127.054 165.985 127.046Z" fill="white"/>
<path d="M181.653 127.135C181.389 127.734 180.735 128.049 180.129 128.293C179.522 128.538 178.86 128.801 178.53 129.369C177.868 130.511 178.955 132.126 178.246 133.233C178.079 133.456 177.869 133.642 177.628 133.782C177.387 133.921 177.12 134.01 176.844 134.044C176.391 134.127 175.93 134.127 175.473 134.166C175.254 134.163 175.036 134.146 174.819 134.115C174.183 133.973 173.517 134.044 172.925 134.316C172.015 134.828 171.743 135.974 171.184 136.86C170.842 137.382 170.391 137.824 169.863 138.156C169.335 138.488 168.741 138.701 168.123 138.783C167.729 138.834 166.941 138.909 166.547 138.676C166.517 138.661 166.487 138.643 166.461 138.621C166.402 138.558 166.331 138.475 166.299 138.432C166.297 138.423 166.297 138.414 166.299 138.405C166.138 137.81 166.402 137.195 166.413 136.581V136.471C166.386 135.758 166.366 135.049 166.35 134.34C166.316 133.027 166.303 131.714 166.311 130.401C166.311 129.55 166.217 128.62 166.579 127.821C166.973 126.938 167.965 126.919 168.34 126.056C168.489 125.709 168.568 125.343 168.714 124.993C168.939 124.483 169.3 124.045 169.757 123.726C170.214 123.407 170.75 123.22 171.306 123.185C173.035 123.098 174.583 124.496 176.312 124.366C176.757 124.331 177.194 124.193 177.635 124.114C179.034 123.85 180.653 124.248 181.44 125.434C181.613 125.678 181.723 125.961 181.76 126.258C181.797 126.555 181.761 126.856 181.653 127.135Z" fill="#1677FF"/>
<path d="M166.126 135.675C166.089 135.664 166.057 135.639 166.038 135.605C166.019 135.572 166.014 135.532 166.023 135.494C168.41 126.537 177.84 125.253 180.058 125.403C180.077 125.404 180.096 125.408 180.114 125.417C180.132 125.425 180.147 125.437 180.16 125.452C180.173 125.467 180.183 125.484 180.189 125.503C180.195 125.521 180.197 125.541 180.196 125.56C180.192 125.598 180.173 125.634 180.144 125.659C180.114 125.684 180.077 125.696 180.038 125.694C177.876 125.54 168.643 126.805 166.307 135.573C166.296 135.61 166.271 135.642 166.237 135.661C166.203 135.68 166.163 135.685 166.126 135.675Z" fill="white"/>
<path d="M176.614 131.138C176.584 131.134 176.556 131.12 176.535 131.099C175.663 130.343 174.635 129.79 173.525 129.477C172.414 129.164 171.249 129.101 170.111 129.291C170.072 129.294 170.034 129.283 170.003 129.26C169.973 129.237 169.952 129.203 169.945 129.165C169.94 129.126 169.949 129.087 169.972 129.055C169.995 129.024 170.029 129.002 170.067 128.995C171.254 128.798 172.47 128.865 173.628 129.193C174.785 129.52 175.856 130.1 176.764 130.89C176.777 130.904 176.789 130.92 176.796 130.938C176.804 130.956 176.808 130.975 176.808 130.994C176.808 131.014 176.804 131.033 176.796 131.051C176.789 131.069 176.777 131.085 176.764 131.099C176.746 131.12 176.722 131.135 176.695 131.142C176.668 131.149 176.64 131.148 176.614 131.138Z" fill="white"/>
<path d="M143.446 20.0606L144.699 20.5412V17.7839C144.699 15.5939 146.444 15.07 148.338 16.165C150.237 17.26 151.773 19.9188 151.773 22.1089V22.5027C152.037 22.4221 152.316 22.4021 152.589 22.4444C152.862 22.4867 153.121 22.5901 153.349 22.747C154.068 23.2161 154.667 23.8483 155.096 24.5922C155.525 25.3362 155.772 26.1709 155.818 27.0286V27.2098L157.567 28.2181C158.04 28.527 158.434 28.9429 158.717 29.4321C158.999 29.9214 159.163 30.4703 159.194 31.0345C159.194 32.0743 158.465 32.4958 157.567 31.9759L143.446 23.8183C142.973 23.5102 142.579 23.0944 142.297 22.6049C142.015 22.1155 141.852 21.5662 141.823 21.002C141.823 19.9661 142.544 19.5446 143.446 20.0606Z" fill="#E6E6E6"/>
<path d="M160.223 17.8794L162.495 19.191C162.483 19.0917 162.476 18.9917 162.476 18.8917V18.2339C162.476 17.0522 163.295 16.5874 164.311 17.1743C164.748 17.4417 165.121 17.8005 165.406 18.226C165.572 16.7528 166.73 16.2053 168.132 17.0128C168.933 17.5342 169.601 18.2371 170.08 19.0644C170.559 19.8918 170.836 20.8204 170.889 21.775V22.7597C170.899 23.1531 170.82 23.5438 170.657 23.902L172.547 24.9891C172.842 25.1845 173.087 25.4463 173.262 25.7535C173.437 26.0606 173.538 26.4046 173.556 26.7577C173.556 27.4076 173.099 27.6715 172.536 27.3485L160.223 20.2585C159.925 20.0644 159.677 19.8027 159.5 19.4946C159.322 19.1866 159.221 18.8409 159.202 18.486C159.202 17.8203 159.659 17.5564 160.223 17.8794Z" fill="#E6E6E6"/>
<path d="M151.424 77.6586C149.77 80.4553 148.178 82.8856 147.06 84.0515C144.936 85.0362 139.95 86.5567 138 86.8088C137.658 86.8524 137.311 86.7713 137.023 86.5803C136.255 86.0761 135.66 85.9934 134.853 85.7137C134.219 85.4971 133.951 85.1938 133.833 85.3198C133.711 85.4629 133.649 85.648 133.662 85.8357C133.674 86.0233 133.76 86.1987 133.9 86.3243C134.203 86.6121 134.538 86.8633 134.9 87.0727C134.035 87.2872 133.133 87.3034 132.261 87.1199C130.571 86.6748 129.776 87.4863 130.918 89.3218C131.312 89.9757 132.935 91.0273 136.196 90.7437C137.359 90.681 138.518 90.5495 139.666 90.3499C142.794 89.6802 146.272 89.0342 148.411 88.3804C149.206 88.0675 149.918 87.574 150.49 86.9387C154.087 82.8383 155.28 79.9156 156.856 77.2608L156.722 72.928C154.169 72.8413 152.806 75.3189 151.424 77.6586Z" fill="#FFA8A7"/>
<path d="M157.156 72.8417C156.416 72.7376 155.662 72.8379 154.974 73.1315C154.287 73.4252 153.693 73.9011 153.257 74.5078C151.508 76.7491 148.412 82.1297 148.412 82.1297C148.412 82.1297 149.424 84.8278 152.158 85.2808L156.55 79.3488C156.55 79.3488 158.629 75.2287 157.156 72.8417Z" fill="#455A64"/>
<path d="M166.654 133.319H163.79V138.424H166.654V133.319Z" fill="#FFA8A7"/>
<path d="M156.728 133.049L153.868 133.151L153.722 127.747L156.728 127.645V133.049Z" fill="#FFA8A7"/>
<path d="M167.055 89.1291C167.055 91.973 166.637 114.886 166.637 114.886C166.701 115.705 167.425 117.218 167.28 120.365C167.063 124.639 166.775 135.872 166.775 135.872C166.284 136.124 165.741 136.26 165.189 136.271C164.637 136.282 164.09 136.167 163.589 135.935C163.589 135.935 161.265 120.18 160.753 115.961C160.304 112.262 159.154 100.02 159.154 100.02L157.606 114.492C157.934 116.045 158.053 117.634 157.96 119.219C157.826 121.188 156.904 131.382 156.904 131.382C156.41 131.674 155.855 131.849 155.282 131.895C154.71 131.941 154.134 131.855 153.6 131.646C153.6 131.646 151.969 116.284 151.937 114.48C151.898 112.432 152.891 89.1055 152.891 89.1055L167.055 89.1291Z" fill="#37474F"/>
<path d="M163.791 136.952V136.527C163.515 136.649 162.881 139.178 161.743 140.257C160.841 141.116 159.612 142.104 159.297 143.061C158.981 144.019 161.01 144.605 161.857 144.452C162.834 144.271 164.535 143.55 164.961 142.876C165.386 142.203 165.587 141.226 165.934 140.737C166.28 140.249 167.08 139.705 167.265 139.138C167.323 138.608 167.268 138.071 167.104 137.563C166.97 137.035 166.828 136.456 166.655 136.507V136.83C166.251 137.161 165.743 137.34 165.221 137.334C164.803 137.37 163.787 137.283 163.791 136.952Z" fill="#263238"/>
<path d="M153.838 132.229C153.688 132.229 153.566 132.454 153.239 132.824C152.753 133.335 152.184 133.761 151.557 134.084C150.486 134.644 148.406 135.502 147.457 135.948C146.866 136.223 146.893 136.964 147.504 137.385C148.114 137.807 149.584 138.11 151.348 137.7C152.309 137.476 153.562 136.55 154.358 136.601C155.153 136.653 156.63 136.637 157.217 136.208C157.804 135.778 157.568 134.888 157.402 134.12C157.221 133.277 157.009 131.965 156.729 132.024V132.32C156.386 132.863 154.61 133.084 153.853 132.686L153.838 132.229Z" fill="#263238"/>
<path d="M159.154 100.021C157.665 99.5331 156.303 98.719 155.168 97.6377C155.168 97.6377 155.956 99.1384 158.225 100.537L157.736 113.46L159.154 100.021Z" fill="#263238"/>
<path d="M165.455 73.2584C165.455 73.2584 167.819 73.802 167.649 78.0718L167.157 84.8664V95.0682C165.054 97.4552 155.734 97.2819 152.524 94.8792C152.524 94.8792 152.886 82.8064 153.103 78.1584C153.257 74.8576 154.017 73.1954 157.262 72.833L161.253 73.0063L165.455 73.2584Z" fill="#1677FF"/>
<path d="M162.445 64.3884C162.459 64.96 162.359 65.5287 162.152 66.0616C161.945 66.5945 161.634 67.0812 161.238 67.4935C160.842 67.9058 160.368 68.2356 159.844 68.4639C159.32 68.6922 158.755 68.8144 158.184 68.8236C155.82 68.8236 154.434 66.7832 153.922 64.3884C152.976 60.0044 155.828 59.9492 158.184 59.9492C159.337 59.973 160.434 60.454 161.234 61.2864C162.033 62.1189 162.469 63.2346 162.445 64.3884Z" fill="#263238"/>
<path d="M164.621 66.1807C164.621 66.1807 163.967 69.3791 163.704 69.9069C163.538 70.2245 163.255 70.4658 162.916 70.5804L162.963 68.3313L164.621 66.1807Z" fill="#263238"/>
<path d="M163.797 61.6001C163.797 61.6001 164.266 61.482 164.766 62.2619C165.191 62.9276 165.29 64.4243 164.62 66.2008L163.387 66.3505L163.797 61.6001Z" fill="#263238"/>
<path d="M164.251 62.2504L165.763 62.278C165.774 62.1803 165.764 62.0814 165.734 61.9877C165.704 61.894 165.656 61.8074 165.591 61.7334C165.526 61.6595 165.447 61.5997 165.358 61.5578C165.269 61.516 165.172 61.4929 165.074 61.4902C164.867 61.4932 164.669 61.5725 164.517 61.7128C164.365 61.8531 164.27 62.0445 164.251 62.2504Z" fill="#263238"/>
<path d="M164.437 61.8924L165.556 60.8171C165.491 60.7411 165.412 60.6793 165.322 60.6356C165.232 60.5918 165.135 60.5672 165.035 60.5631C164.936 60.559 164.836 60.5756 164.744 60.6119C164.651 60.6482 164.566 60.7033 164.496 60.7738C164.348 60.9188 164.259 61.1144 164.248 61.3216C164.237 61.5288 164.305 61.7325 164.437 61.8924Z" fill="#263238"/>
<path d="M163.017 66.3316C163.266 66.4852 163.616 65.9929 163.923 65.6581C164.231 65.3232 165.184 65.016 165.68 66.1032C166.176 67.1903 165.33 68.2656 164.621 68.6201C163.348 69.2503 162.947 68.3326 162.947 68.3326L162.84 73.398C161.052 76.1553 156.995 76.0686 158.456 73.2641V71.724C157.855 71.8239 157.245 71.8556 156.636 71.8185C155.644 71.661 155.021 70.8456 154.718 69.727C154.238 67.9308 154.052 66.4813 154.462 62.9481C154.911 59.0801 159.236 59.0367 161.552 60.5847C163.868 62.1327 163.017 66.3316 163.017 66.3316Z" fill="#FFA8A7"/>
<path d="M157.629 62.3453C158.661 62.2429 159.681 62.0302 160.717 61.9514C160.941 61.9244 161.167 61.935 161.387 61.9829C162.175 62.1996 162.08 63.1213 162.206 63.7633C162.423 64.8741 162.6 66.753 163.017 66.7609C163.144 66.7609 163.616 65.9455 163.923 65.654C164.092 65.4029 164.188 65.1096 164.199 64.8072C164.278 64.3502 164.317 63.8815 164.353 63.4167C164.384 63.0228 164.424 62.6289 164.424 62.235C164.442 61.7899 164.406 61.3442 164.317 60.9076C164.219 60.5362 164.029 60.1951 163.766 59.915L163.687 59.8284C163.168 59.2855 162.538 58.861 161.84 58.5837C160.835 58.2074 159.782 57.9779 158.712 57.9022C157.644 57.8266 156.58 57.6951 155.526 57.5083C155.465 57.4907 155.401 57.4907 155.341 57.5083C155.298 57.532 155.262 57.5661 155.235 57.6074C155.209 57.6487 155.194 57.6959 155.191 57.7447C155.148 57.9894 155.175 58.2414 155.269 58.4715C155.363 58.7015 155.52 58.9002 155.723 59.0445C155.01 59.0997 154.19 58.7294 153.505 58.5403C153.45 58.5168 153.39 58.5047 153.33 58.5047C153.269 58.5047 153.21 58.5168 153.154 58.5403C153.086 58.5884 153.037 58.6598 153.017 58.7412C152.967 58.9263 152.96 59.1203 152.997 59.3084C153.06 59.8785 153.272 60.422 153.611 60.884C154.142 61.5752 154.892 62.0654 155.738 62.2744C156.361 62.3945 156.999 62.4184 157.629 62.3453Z" fill="#263238"/>
<path d="M158.461 71.7226C158.461 71.7226 160.674 71.2578 161.446 70.8285C161.906 70.5769 162.28 70.1926 162.518 69.7256C162.402 70.1947 162.194 70.6364 161.907 71.0254C161.344 71.7817 158.461 72.3332 158.461 72.3332V71.7226Z" fill="#F28F8F"/>
<path d="M158.991 65.7524C158.987 65.874 159.031 65.9923 159.114 66.0816C159.196 66.1709 159.311 66.2239 159.433 66.229C159.529 66.2369 159.626 66.2155 159.71 66.1676C159.794 66.1197 159.862 66.0475 159.904 65.9604C159.946 65.8734 159.962 65.7755 159.947 65.6797C159.933 65.584 159.89 65.4947 159.825 65.4236C159.759 65.3526 159.673 65.3031 159.579 65.2815C159.484 65.26 159.386 65.2675 159.296 65.3031C159.206 65.3386 159.128 65.4005 159.074 65.4807C159.02 65.5609 158.991 65.6556 158.991 65.7524Z" fill="#263238"/>
<path d="M159.703 63.841L160.652 64.3885C160.721 64.2535 160.737 64.0974 160.696 63.9514C160.655 63.8054 160.56 63.6802 160.431 63.6007C160.368 63.5654 160.299 63.5435 160.227 63.5366C160.155 63.5296 160.083 63.5377 160.014 63.5603C159.946 63.5829 159.882 63.6196 159.829 63.6679C159.775 63.7162 159.732 63.7751 159.703 63.841Z" fill="#263238"/>
<path d="M158.659 68.9463L157.646 69.3402C157.667 69.4096 157.701 69.4741 157.748 69.5297C157.794 69.5853 157.851 69.6307 157.916 69.6632C157.98 69.6957 158.051 69.7146 158.123 69.7187C158.196 69.7227 158.268 69.7119 158.336 69.6868C158.474 69.6275 158.584 69.5179 158.644 69.3804C158.704 69.2429 158.709 69.0877 158.659 68.9463Z" fill="#F28F8F"/>
<path d="M154.921 64.2471L155.787 63.5539C155.748 63.4934 155.697 63.4417 155.637 63.4023C155.577 63.3628 155.509 63.3365 155.438 63.325C155.367 63.3135 155.295 63.317 155.225 63.3354C155.156 63.3538 155.091 63.3866 155.035 63.4318C154.919 63.53 154.843 63.6673 154.822 63.8177C154.801 63.968 154.836 64.1209 154.921 64.2471Z" fill="#263238"/>
<path d="M155.3 65.6231C155.307 65.7093 155.339 65.7916 155.392 65.86C155.445 65.9284 155.516 65.9799 155.598 66.0082C155.68 66.0365 155.768 66.0405 155.852 66.0195C155.936 65.9985 156.012 65.9536 156.07 65.8901C156.129 65.8267 156.168 65.7475 156.183 65.6623C156.197 65.5771 156.187 65.4894 156.152 65.4102C156.118 65.3309 156.061 65.2633 155.989 65.2158C155.916 65.1683 155.832 65.1429 155.745 65.1426C155.684 65.1446 155.625 65.1587 155.569 65.184C155.514 65.2093 155.464 65.2453 155.423 65.29C155.381 65.3347 155.349 65.3871 155.328 65.4443C155.307 65.5015 155.298 65.5623 155.3 65.6231Z" fill="#263238"/>
<path d="M157.677 65.252L157.626 68.0525L156.034 67.6901L157.677 65.252Z" fill="#F28F8F"/>
<path d="M119.889 88.7072L122.358 87.2813L123.335 86.0957L120.869 87.5216L119.889 88.7072Z" fill="#1677FF"/>
<path opacity="0.4" d="M119.889 88.7072L122.358 87.2813L123.335 86.0957L120.869 87.5216L119.889 88.7072Z" fill="black"/>
<path d="M126.604 92.5836L129.073 91.1577L131.133 89.334L128.668 90.7559L126.604 92.5836Z" fill="#1677FF"/>
<path opacity="0.4" d="M126.604 92.5836L129.073 91.1577L131.133 89.334L128.668 90.7559L126.604 92.5836Z" fill="black"/>
<path d="M147.58 97.5026C148.164 98.2854 148.518 99.2159 148.6 100.189C148.019 99.4048 147.666 98.4751 147.58 97.5026ZM153.319 97.5775C152.488 91.9251 149.451 86.3358 145.835 84.2442C144.098 83.2398 142.491 83.2044 141.203 83.9567L138.879 85.2959L138.749 85.3747C138.646 85.4317 138.546 85.4948 138.45 85.5638C138.259 85.6952 138.08 85.8428 137.914 86.0049L137.835 86.0798C137.764 86.1507 137.69 86.2334 137.623 86.3122C137.556 86.3909 137.453 86.513 137.374 86.6194C137.207 86.8395 137.056 87.0711 136.921 87.3127C136.851 87.4348 136.784 87.5647 136.721 87.7065L116.423 75.9922L113.958 77.4141V78.9897L114.166 79.1079L114.363 79.2221V79.5372L113.969 79.7696V80.6834L116.951 86.9857L119.897 88.6913L120.878 87.5096L123.478 89.0655L124.971 91.6218L126.617 92.5711L128.677 90.7435L131.206 92.2048L132.057 95.7144L136.307 98.1723C136.517 99.0655 136.78 99.9454 137.095 100.807C137.122 100.894 137.158 100.985 137.193 101.083C138.603 104.786 140.845 107.957 143.373 109.418C143.676 109.598 143.994 109.752 144.323 109.879C144.496 109.948 144.674 110.007 144.854 110.056C145.012 110.098 145.17 110.133 145.327 110.162C145.825 110.253 146.334 110.253 146.832 110.162L147.037 110.111C147.135 110.091 147.231 110.064 147.324 110.028L147.545 109.942C147.623 109.914 147.698 109.878 147.769 109.835C147.842 109.804 147.913 109.768 147.982 109.729L148.084 109.666C148.103 109.66 148.12 109.651 148.136 109.638C148.699 109.315 150.085 108.512 150.463 108.299C152.338 107.212 153.552 104.463 153.552 100.575C153.548 99.5715 153.471 98.5695 153.319 97.5775Z" fill="#1677FF"/>
<path d="M146.862 102.275C145.885 101.711 145.097 100.041 145.097 98.5444C145.097 97.0476 145.885 96.2874 146.862 96.8467C147.839 97.4061 148.623 99.0801 148.623 100.581C148.623 102.082 147.835 102.838 146.862 102.275ZM150.852 99.0013C150.025 93.3529 146.988 87.7596 143.368 85.672C141.69 84.703 140.138 84.6321 138.878 85.2978L138.748 85.3766C138.644 85.4335 138.544 85.4967 138.448 85.5657C138.257 85.697 138.078 85.8446 137.913 86.0068L137.834 86.0816C137.763 86.1525 137.688 86.2353 137.621 86.314C137.554 86.3928 137.452 86.5149 137.373 86.6213C137.206 86.8414 137.054 87.073 136.92 87.3145C136.849 87.4366 136.782 87.5666 136.719 87.7084C136.352 88.4698 136.087 89.2764 135.931 90.1072L113.956 77.416V78.9916L114.165 79.1098L114.362 79.224V79.5391L113.968 79.7715V80.6853L116.95 86.9876L119.896 88.6932L120.877 87.5115L123.476 89.0674L124.969 91.6237L126.616 92.573L128.676 90.7453L131.205 92.2067L132.055 95.7163L136.309 98.1741C136.52 99.0674 136.783 99.9473 137.097 100.809C137.125 100.896 137.16 100.987 137.196 101.085C138.606 104.788 140.847 107.958 143.376 109.42C143.679 109.6 143.996 109.754 144.325 109.881C144.499 109.95 144.676 110.009 144.857 110.058C145.014 110.1 145.172 110.135 145.33 110.164C145.827 110.255 146.337 110.255 146.834 110.164L147.039 110.113C147.137 110.093 147.233 110.066 147.327 110.03L147.547 109.944C147.625 109.915 147.7 109.88 147.772 109.837C147.845 109.806 147.916 109.77 147.984 109.731L148.087 109.668C148.105 109.662 148.123 109.653 148.138 109.64C149.934 108.506 151.088 105.796 151.088 102.003C151.082 100.998 151.003 99.9948 150.852 99.0013Z" fill="#1677FF"/>
<path opacity="0.4" d="M148.621 100.576C148.621 102.077 147.833 102.837 146.86 102.274C145.887 101.711 145.096 100.044 145.096 98.5437C145.096 97.0429 145.883 96.2827 146.86 96.846C147.142 97.0172 147.387 97.2421 147.581 97.5077C147.666 98.4804 148.019 99.4104 148.601 100.194C148.616 100.321 148.622 100.449 148.621 100.576Z" fill="black"/>
<path opacity="0.4" d="M153.544 100.572C153.544 104.459 152.331 107.209 150.456 108.296C150.062 108.508 148.692 109.312 148.128 109.635C149.924 108.501 151.079 105.791 151.079 101.997C151.074 100.994 150.998 99.9923 150.85 98.9999C150.023 93.3515 146.986 87.7582 143.366 85.6706C141.688 84.7016 140.136 84.6307 138.876 85.2964L141.2 83.9571C142.488 83.2048 144.095 83.2402 145.832 84.2447C149.452 86.3362 152.489 91.9256 153.316 97.5779C153.466 98.5688 153.542 99.5694 153.544 100.572Z" fill="white"/>
<path d="M151.078 101.991C151.078 105.784 149.924 108.494 148.128 109.629C148.691 109.306 150.078 108.502 150.456 108.289C152.331 107.202 153.544 104.453 153.544 100.565C153.544 100.423 153.544 100.278 153.544 100.132L151.078 101.558C151.074 101.711 151.078 101.853 151.078 101.991Z" fill="#1677FF"/>
<path opacity="0.1" d="M151.078 101.991C151.078 105.784 149.924 108.494 148.128 109.629C148.691 109.306 150.078 108.502 150.456 108.289C152.331 107.202 153.544 104.453 153.544 100.565C153.544 100.423 153.544 100.278 153.544 100.132L151.078 101.558C151.074 101.711 151.078 101.853 151.078 101.991Z" fill="black"/>
<path opacity="0.15" d="M136.023 91.717V92.5166L113.958 79.7781L114.363 79.5418V79.2109L136.023 91.717Z" fill="black"/>
<path opacity="0.15" d="M136.023 92.0491V92.5178L113.958 79.7793L114.363 79.543V79.5391L136.023 92.0491Z" fill="black"/>
<path opacity="0.15" d="M145.62 108.292C144.784 108.271 143.969 108.027 143.257 107.587C139.661 105.511 136.734 99.3352 136.734 93.8207C136.734 90.6026 137.707 88.1999 139.405 87.2191C140.586 86.5337 141.985 86.6204 143.454 87.4672C147.046 89.5431 149.973 95.739 149.973 101.253C149.973 104.468 149 106.874 147.302 107.851C146.79 108.144 146.21 108.296 145.62 108.292ZM141.11 87.16C140.585 87.1571 140.069 87.293 139.613 87.5539C138.065 88.448 137.14 90.7917 137.14 93.8168C137.14 99.2052 139.976 105.24 143.466 107.241C144.801 108.028 146.065 108.099 147.117 107.493C148.665 106.599 149.591 104.259 149.591 101.234C149.591 95.8414 146.755 89.8109 143.269 87.806C142.617 87.4096 141.873 87.1922 141.11 87.1758V87.16Z" fill="black"/>
<path opacity="0.4" d="M136.702 87.6987C136.334 88.4601 136.069 89.2667 135.914 90.0975L113.938 77.4063L116.404 75.9844L136.702 87.6987Z" fill="white"/>
<path d="M165.262 88.932C166.412 86.7537 167.727 81.8616 168.381 79.3919C169.311 75.8862 167.806 73.6804 166.097 73.5898C165.029 73.7553 161.512 86.545 161.512 86.545C161.118 86.8561 155.773 89.5701 154.055 90.2515C153.748 90.3677 153.409 90.3677 153.102 90.2515C152.279 89.9521 151.716 90.0073 150.908 89.9285C150.274 89.8655 149.955 89.641 149.872 89.7749C149.797 89.9411 149.787 90.1295 149.845 90.3025C149.903 90.4756 150.024 90.6205 150.183 90.7084C150.531 90.9109 150.901 91.0722 151.286 91.1889C150.596 91.3984 149.876 91.4954 149.155 91.4765C147.501 91.441 146.906 92.1579 148.19 93.8398C148.978 94.8876 150.282 95.2185 153.193 94.2141C154.028 93.9226 155.162 93.3593 156.222 92.9772C158.404 92.1894 158.979 92.0949 160.641 91.5316C163.064 90.7123 164.75 89.9009 165.262 88.932Z" fill="#FFA8A7"/>
<path d="M165.456 73.2588C166.46 73.3967 167.426 73.6212 168.02 74.4405C168.615 75.2598 169.092 76.4099 168.509 79.5414C168.062 81.7436 167.465 83.9125 166.72 86.0327C166.72 86.0327 164.381 87.0332 161.895 84.4965L163.605 77.887C163.605 77.887 163.88 73.5897 165.456 73.2588Z" fill="#455A64"/>
</svg>
