<svg width="40" height="40" viewBox="0 0 40 40" fill="none" xmlns="http://www.w3.org/2000/svg">
<path d="M34.8675 23.6835L33.8275 20.3028C33.5942 19.5348 33.1195 18.8626 32.4739 18.3859C31.8282 17.9091 31.0461 17.6533 30.2435 17.6563H9.70517C8.90246 17.6534 8.1202 17.9093 7.47448 18.3862C6.82875 18.863 6.35397 19.5353 6.12058 20.3034L5.57065 22.0923C5.48814 22.3612 5.49867 22.65 5.60056 22.9122C5.70245 23.1743 5.88974 23.3944 6.13218 23.537L24.461 34.3189C24.706 34.4631 24.9928 34.5195 25.2742 34.4786C25.5555 34.4378 25.8145 34.3022 26.0083 34.0943L34.5862 24.9036C34.7361 24.7429 34.8411 24.5455 34.8905 24.3313C34.9399 24.1171 34.932 23.8937 34.8675 23.6835Z" fill="#F6B025"/>
<path d="M12.3035 24.2677L7.39991 21.3826C7.23725 21.2869 7.05502 21.2293 6.86689 21.214C6.67877 21.1988 6.48963 21.2264 6.31368 21.2947C6.13773 21.363 5.97954 21.4702 5.85096 21.6084C5.72239 21.7466 5.62678 21.9121 5.5713 22.0925L3.09389 30.1442C3.01728 30.3931 3.02031 30.6596 3.10256 30.9067C3.1848 31.1537 3.34216 31.3689 3.55264 31.5222C3.76312 31.6755 4.01621 31.7592 4.27658 31.7616C4.53694 31.7641 4.79156 31.6851 5.00489 31.5358L12.3859 26.3692C12.5573 26.2491 12.6959 26.088 12.7889 25.9004C12.8819 25.7129 12.9263 25.5051 12.9181 25.296C12.9099 25.0868 12.8493 24.8831 12.742 24.7034C12.6346 24.5238 12.4838 24.374 12.3035 24.2677Z" fill="#4096FF"/>
<path d="M37.6735 32.8033L34.8671 23.6834C34.8027 23.4739 34.6844 23.285 34.524 23.1356C34.3635 22.9863 34.1666 22.8818 33.953 22.8326C33.7394 22.7835 33.5166 22.7913 33.307 22.8555C33.0974 22.9197 32.9084 23.0378 32.7589 23.1982L21.2276 35.5535C21.0615 35.7316 20.951 35.9543 20.9097 36.1942C20.8684 36.4342 20.8981 36.681 20.9952 36.9044C21.0922 37.1277 21.2524 37.3178 21.456 37.4514C21.6596 37.5849 21.8978 37.6561 22.1413 37.6562H34.0895C34.6763 37.6562 35.255 37.5185 35.7789 37.2541C36.3028 36.9897 36.7574 36.6061 37.106 36.134C37.4546 35.662 37.6876 35.1147 37.7861 34.5362C37.8847 33.9577 37.8461 33.3641 37.6735 32.8033Z" fill="#4096FF"/>
<path d="M25.7281 32.1641L12.3029 24.2674C12.0964 24.1459 11.8594 24.0863 11.62 24.0957C11.3806 24.1051 11.149 24.1831 10.9528 24.3205L3.57179 29.4871C3.34379 29.6467 3.17559 29.8778 3.09389 30.1438L2.2754 32.8026C2.10271 33.3635 2.06407 33.9571 2.16261 34.5356C2.26114 35.1142 2.49409 35.6615 2.84271 36.1337C3.19134 36.6058 3.64591 36.9895 4.16986 37.2539C4.6938 37.5183 5.27249 37.656 5.85938 37.656H22.1411C22.3125 37.6561 22.4821 37.6208 22.6393 37.5524C22.7965 37.4841 22.938 37.3841 23.0549 37.2587L26.0084 34.094C26.1362 33.9572 26.2316 33.7934 26.2876 33.6147C26.3436 33.4361 26.3587 33.2471 26.3318 33.0618C26.3049 32.8765 26.2367 32.6996 26.1322 32.5442C26.0277 32.3888 25.8896 32.2589 25.7281 32.1641Z" fill="#52C41A"/>
<path d="M35.0743 24.3686L22.6743 37.6561H19.2618L23.1118 33.5311L11.7243 26.8311L2.11182 33.5561C2.13595 33.3005 2.1905 33.0487 2.27432 32.8061L3.22432 29.7311L9.36182 25.4311L5.28682 23.0311L6.03682 20.5811L24.8618 31.6561L34.0618 21.8061C34.1108 21.7461 34.1701 21.6953 34.2368 21.6561L35.0743 24.3686Z" fill="#676767"/>
<g filter="url(#filter0_f_7106_8668)">
<ellipse cx="19.9352" cy="24.8773" rx="3.19011" ry="1.13807" fill="black" fill-opacity="0.2"/>
</g>
<path fill-rule="evenodd" clip-rule="evenodd" d="M19.9353 2.34375C25.2208 2.34375 29.5056 6.62382 29.5056 11.9035C29.5056 15.9517 26.9867 19.4121 23.4291 20.8063L20.4804 24.8323C20.4189 24.9166 20.3373 24.9854 20.2424 25.0329C20.1476 25.0804 20.0422 25.1052 19.9353 25.1052C19.8284 25.1052 19.723 25.0804 19.6282 25.0329C19.5333 24.9854 19.4517 24.9166 19.3902 24.8323L16.4415 20.8063C12.8839 19.4121 10.365 15.9517 10.365 11.9035C10.365 6.62382 14.6498 2.34375 19.9353 2.34375Z" fill="#55C21F"/>
<path d="M23.8914 10.6189V12.3663H15V10.6189H23.8914ZM18.4678 7.5V16.25H16.2905V7.5H18.4678ZM25 7.5L20.286 12.2552L19.7805 12.8577L18.2683 14.4V11.0761H18.6009L22.1264 7.5H25ZM22.0909 16.25L19.0754 12.4219L20.6896 11.2042L24.6984 16.25H22.0909Z" fill="white"/>
<defs>
<filter id="filter0_f_7106_8668" x="14.7451" y="21.7393" width="10.3801" height="6.27637" filterUnits="userSpaceOnUse" color-interpolation-filters="sRGB">
<feFlood flood-opacity="0" result="BackgroundImageFix"/>
<feBlend mode="normal" in="SourceGraphic" in2="BackgroundImageFix" result="shape"/>
<feGaussianBlur stdDeviation="1" result="effect1_foregroundBlur_7106_8668"/>
</filter>
</defs>
</svg>
