<svg width="45" height="44" viewBox="0 0 45 44" fill="none" xmlns="http://www.w3.org/2000/svg">
<g clip-path="url(#clip0_7098_10794)">
<path d="M41.744 44.0003H3.0558C1.58902 44.0003 0.399902 42.8111 0.399902 41.3444V7.91957C0.399902 6.4527 1.58902 5.26367 3.0558 5.26367H41.7439C43.2108 5.26367 44.3998 6.45279 44.3998 7.91957V41.3443C44.3999 42.8111 43.2108 44.0003 41.744 44.0003Z" fill="#FFF7E8"/>
<path d="M39.1497 44.0006L12.8542 17.7051L0.413086 30.1462V41.6074C0.545 42.9507 1.67748 44.0002 3.05532 44.0006H39.1497Z" fill="#4096FF"/>
<path d="M9.43102 14.2815L1.18463 6.03516C0.758469 6.4584 0.475133 7.02507 0.413086 7.6568V23.2994L9.43102 14.2815Z" fill="#BAE0FF"/>
<path d="M44.2202 42.3053C44.3392 41.999 44.4002 41.6733 44.4 41.3447V13.3828L30.0818 28.1668L44.2202 42.3053Z" fill="#BAE0FF"/>
<path d="M41.7447 5.26367H7.17896L26.5473 24.632L44.1122 6.71773C43.6736 5.85527 42.7785 5.26393 41.7447 5.26367Z" fill="#4096FF"/>
<path fill-rule="evenodd" clip-rule="evenodd" d="M13.7891 22C17.5386 22 20.5781 25.0144 20.5781 28.7329C20.5781 31.5839 18.7912 34.0211 16.2675 35.003L14.1757 37.8385C14.1321 37.8978 14.0742 37.9463 14.0069 37.9797C13.9396 38.0132 13.8649 38.0306 13.7891 38.0306C13.7132 38.0306 13.6385 38.0132 13.5712 37.9797C13.5039 37.9463 13.446 37.8978 13.4024 37.8385L11.3106 35.003C8.7869 34.0211 7 31.5839 7 28.7329C7 25.0144 10.0396 22 13.7891 22Z" fill="#FFC042"/>
<path d="M16.5955 27.8284V29.0591H10.2881V27.8284H16.5955ZM12.7481 25.6318V31.7944H11.2035V25.6318H12.7481ZM17.382 25.6318L14.0379 28.9809L13.6793 29.4052L12.6066 30.4915V28.1504H12.8425L15.3435 25.6318H17.382ZM15.3183 31.7944L13.1791 29.0983L14.3242 28.2407L17.168 31.7944H15.3183Z" fill="white"/>
<path fill-rule="evenodd" clip-rule="evenodd" d="M24.7891 2.2002C28.5386 2.2002 31.5781 5.2146 31.5781 8.93307C31.5781 11.7841 29.7912 14.2213 27.2675 15.2032L25.1757 18.0387C25.1321 18.098 25.0742 18.1465 25.0069 18.1799C24.9396 18.2134 24.8649 18.2308 24.7891 18.2308C24.7132 18.2308 24.6385 18.2134 24.5712 18.1799C24.5039 18.1465 24.446 18.098 24.4024 18.0387L22.3106 15.2032C19.7869 14.2213 18 11.7841 18 8.93307C18 5.2146 21.0396 2.2002 24.7891 2.2002Z" fill="#52C41A"/>
<path d="M27.5955 8.02864V9.25934H21.2881V8.02864H27.5955ZM23.7481 5.83203V11.9946H22.2035V5.83203H23.7481ZM28.382 5.83203L25.0379 9.18111L24.6793 9.60538L23.6066 10.6917V8.35061H23.8425L26.3435 5.83203H28.382ZM26.3183 11.9946L24.1791 9.29846L25.3242 8.44088L28.168 11.9946H26.3183Z" fill="white"/>
</g>
<defs>
<clipPath id="clip0_7098_10794">
<rect width="44" height="44" fill="white" transform="translate(0.399902)"/>
</clipPath>
</defs>
</svg>
