<svg width="82" height="82" viewBox="0 0 82 82" fill="none" xmlns="http://www.w3.org/2000/svg">
<g filter="url(#filter0_d_7032_15846)">
<path d="M41 6.74902C24.0861 6.74902 10.3748 20.4604 10.3748 37.3743C10.3748 45.0701 13.214 52.1023 17.9014 57.4823L27.7841 65.0083C31.7853 66.9253 36.2671 67.9995 41 67.9995C57.9139 67.9995 71.6253 54.2881 71.6253 37.3743C71.6253 20.4604 57.9139 6.74902 41 6.74902Z" fill="#4FABF7"/>
</g>
<path d="M42.9835 56.6561L42.9065 56.5153C42.4609 55.7011 42.7624 54.6702 43.5766 54.2246L43.6704 54.1733C42.8174 54.6402 41.7375 54.3243 41.2706 53.4714C40.8037 52.6186 41.1196 51.5387 41.9725 51.0718C41.1195 51.5387 40.0397 51.2228 39.5727 50.3698C39.1059 49.5168 39.4217 48.4371 40.2746 47.9701C39.4216 48.4369 38.3417 48.1211 37.8749 47.2681C37.408 46.4152 37.7239 45.3353 38.5769 44.8683L40.8802 43.6074L40.5291 42.9661C40.4016 42.7331 40.2261 42.5299 40.0143 42.3698C39.8024 42.2097 39.559 42.0964 39.3001 42.0373C38.3644 41.8239 37.3863 41.8956 36.4917 42.2431C35.5971 42.5906 34.827 43.198 34.2807 43.9871C33.274 45.4821 34.2867 43.6589 31.7347 49.5118C31.5701 49.9023 31.2782 50.2256 30.9065 50.4292L17.9014 57.4831C20.6331 60.6186 23.9925 63.1924 27.7841 65.0091L36.9711 60.0259C37.223 59.8881 37.5031 59.8098 37.79 59.7972L40.5829 59.6746C40.8697 59.6619 41.1499 59.5837 41.4017 59.4458L45.094 57.4246L44.9752 57.4537C44.2226 57.6923 43.3761 57.3732 42.9835 56.6561Z" fill="#FCAD6D"/>
<path d="M48.3921 55.6559L39.2214 38.8525L32.7769 40.337L42.8096 58.7195C43.6556 60.2612 45.5911 60.825 47.1327 59.979C48.6742 59.133 49.2381 57.1975 48.3921 55.6559Z" fill="#3C58A0"/>
<path d="M38.5625 44.4872C37.8521 43.1855 38.5804 41.5654 40.0252 41.2325L40.4649 41.1313L39.2212 38.8525L32.7769 40.3372L42.8096 58.7197C43.6392 60.2315 45.5167 60.8022 47.043 60.0255L38.5625 44.4872Z" fill="#2A428C"/>
<path d="M42.7909 56.7611L42.7139 56.6203C42.2682 55.8061 42.5698 54.7752 43.384 54.3294L48.1265 51.7334C48.9408 51.2877 49.9717 51.5893 50.4174 52.4036L50.4944 52.5443C50.9402 53.3586 50.6385 54.3894 49.8243 54.8352L45.0818 57.4312C44.2675 57.8769 43.2367 57.5753 42.7909 56.7611Z" fill="#F9BA8F"/>
<path d="M41.0782 53.5757C40.6113 52.7227 40.9272 51.6428 41.7802 51.1759L47.4661 48.0635C48.3191 47.5967 49.3989 47.9125 49.8658 48.7654C50.3327 49.6183 50.0168 50.6982 49.1639 51.1652L43.4781 54.2775C42.6249 54.7445 41.5451 54.4285 41.0782 53.5757Z" fill="#F9BA8F"/>
<path d="M39.3804 50.4744C38.9135 49.6214 39.2294 48.5415 40.0823 48.0747L46.1219 44.7687C46.9749 44.3018 48.0548 44.6177 48.5216 45.4705C48.9885 46.3235 48.6726 47.4034 47.8198 47.8703L41.7801 51.1763C40.9271 51.6432 39.8473 51.3273 39.3804 50.4744ZM46.0815 42.7753C45.6146 41.9223 44.5348 41.6064 43.6818 42.0733L38.3844 44.9729C37.5314 45.4398 37.2155 46.5197 37.6825 47.3727C38.1494 48.2257 39.2293 48.5415 40.0823 48.0745L45.3795 45.1749C46.2325 44.708 46.5484 43.6283 46.0815 42.7753Z" fill="#F9BA8F"/>
<path d="M31.1069 50.2997C31.1862 51.4066 31.6588 53.1189 33.7697 53.5178C35.1734 53.7831 36.5941 51.9993 36.5941 51.9993C38.3708 49.5171 38.3796 47.6848 38.2591 46.8868C38.2486 46.8177 38.3418 46.7865 38.3754 46.8477L38.8286 47.6755C38.9821 47.9563 39.1879 48.2053 39.4348 48.4089C40.0039 48.8235 40.7829 48.9002 41.4414 48.5398C42.0506 48.2063 42.4009 47.5843 42.4164 46.9366C42.4343 46.1916 42.0997 45.8657 40.5296 42.9651C40.4019 42.7333 40.2272 42.5308 40.0168 42.3705L40.0148 42.3688C39.8029 42.2089 39.5595 42.0956 39.3007 42.0363C38.365 41.8229 37.3868 41.8946 36.4922 42.2421C35.5976 42.5896 34.8276 43.197 34.2813 43.9861C33.2746 45.4811 34.2873 43.6579 31.7353 49.5108C31.6017 49.8262 31.3844 50.099 31.1069 50.2997Z" fill="#FCAD6D"/>
<path d="M40.2063 46.0661L41.014 47.5417C41.2268 47.9303 41.6958 48.0934 42.0988 47.9384C42.2973 47.6414 42.4074 47.2941 42.4162 46.9369C42.432 46.2752 42.1558 45.9678 41.3394 44.4453L40.5548 44.8748C40.1313 45.1066 39.9745 45.6427 40.2063 46.0661Z" fill="#F9DFCD"/>
<path d="M34.4615 52.8716C34.4027 52.7628 34.3824 52.6374 34.4038 52.5156C34.4252 52.3939 34.4871 52.2829 34.5795 52.2007C37.8024 49.3332 37.3251 46.1461 37.32 46.1142C37.2995 45.9719 37.3356 45.8273 37.4207 45.7114C37.5057 45.5955 37.6328 45.5176 37.7747 45.4945C37.9166 45.4713 38.0618 45.5048 38.1793 45.5876C38.2967 45.6705 38.377 45.7962 38.4028 45.9376C38.4279 46.092 38.9774 49.7562 35.3089 53.0203C35.2471 53.0753 35.1736 53.1157 35.094 53.1383C35.0144 53.1609 34.9307 53.1652 34.8492 53.1509C34.7677 53.1366 34.6905 53.104 34.6234 53.0556C34.5562 53.0073 34.5009 52.9444 34.4615 52.8716Z" fill="#FD995B"/>
<path d="M29.7368 39.836L26.1284 24.171C26.1052 24.0687 26.0933 23.9642 26.0929 23.8594C21.8337 25.0658 19.2264 29.416 20.231 33.7775C21.2357 38.139 25.4835 40.9104 29.8412 40.1318C29.7956 40.0373 29.7606 39.9381 29.7368 39.836Z" fill="#E9EFFF"/>
<path d="M21.1094 36.0356C22.8212 39.0481 26.2948 40.7659 29.8411 40.1324C29.7955 40.0379 29.7604 39.9388 29.7366 39.8366L28.6401 35.0765C28.5382 35.0234 28.4391 34.9649 28.3433 34.9014C28.3435 34.9014 25.2023 38.2184 21.1094 36.0356Z" fill="#D3DCFB"/>
<path d="M49.8805 13.3534C46.6053 17.1902 42.3029 20.0123 37.479 21.488C37.485 21.5096 37.4923 21.5306 37.4974 21.5528L41.1058 37.2178C41.1109 37.2399 41.1135 37.2619 41.1176 37.284C46.101 36.5006 51.2045 37.1561 55.8281 39.1735L63.5906 42.561L55.3788 6.91113L49.8805 13.3534Z" fill="#E9EFFF"/>
<path d="M52.2209 10.6113L56.1188 26.3665C56.7543 28.9353 54.6999 31.39 52.061 31.1923C48.9426 30.9585 44.7561 31.0431 40.2161 32.2415C40.2161 32.2415 40.1608 32.38 40.0312 32.5528L41.1059 37.2178C41.111 37.2399 41.1137 37.2619 41.1177 37.284C46.1011 36.5006 51.2046 37.1561 55.8283 39.1735L63.5908 42.561L55.3789 6.91113L52.2209 10.6113Z" fill="#D3DCFB"/>
<path d="M67.4952 20.2797C63.7684 20.4861 61.3186 18.7764 61.3186 18.7764L63.741 29.2926C63.741 29.2926 65.1959 26.6835 68.6375 25.2386C69.1904 25.0065 69.5019 24.4164 69.3672 23.832L68.7669 21.2255C68.6322 20.6411 68.094 20.2466 67.4952 20.2797Z" fill="#E9EFFF"/>
<path d="M69.0141 22.2992C68.4263 22.5358 67.8528 22.8063 67.2965 23.1095C65.9687 23.8361 64.3152 23.0939 63.9755 21.6189L63.5545 19.7914C62.1405 19.3489 61.3186 18.7764 61.3186 18.7764L63.741 29.2926C63.741 29.2926 65.1959 26.6835 68.6375 25.2386C69.1905 25.0065 69.5019 24.4164 69.3672 23.832L69.0141 22.2992Z" fill="#D3DCFB"/>
<path d="M65.6929 44.7271C64.7847 44.9363 63.8789 44.3697 63.6697 43.4615L55.0559 6.06671C54.8467 5.15846 55.4133 4.25271 56.3215 4.04346C57.2298 3.83421 58.1355 4.40083 58.3448 5.30908L66.9585 42.7038C67.1678 43.6121 66.6012 44.5178 65.6929 44.7271Z" fill="#FF4155"/>
<path d="M66.9585 42.7037L63.5567 27.9355C63.4241 28.6269 62.8983 29.2097 62.1682 29.3779C61.4193 29.5504 60.6727 29.2367 60.2566 28.6443L63.6696 43.4612C63.8788 44.3694 64.7846 44.936 65.6928 44.7268C66.6011 44.5177 67.1677 43.6118 66.9585 42.7037Z" fill="#E80054"/>
<path d="M36.0376 20.4311L26.9503 22.5243C26.1857 22.7005 25.7086 23.4631 25.8847 24.2277L29.4931 39.8927C29.6692 40.6573 30.4318 41.1343 31.1965 40.9582L40.2837 38.865C41.0483 38.6888 41.5255 37.9262 41.3492 37.1616L37.7408 21.4966C37.5648 20.7321 36.8022 20.255 36.0376 20.4311Z" fill="#FF4155"/>
<path d="M37.9148 33.0877L30.7996 34.7267C30.7996 34.7267 29.951 35.9628 28.3435 34.9011L29.4933 39.8925C29.6694 40.6571 30.432 41.1341 31.1966 40.958L40.2839 38.8647C41.0485 38.6886 41.5255 37.926 41.3494 37.1613L40.216 32.2412C40.216 32.2412 39.6544 33.649 37.9148 33.0877Z" fill="#E80054"/>
<path d="M31.5344 22.5937C31.3224 22.5934 31.1169 22.5213 30.9511 22.3893C30.7854 22.2572 30.6692 22.0729 30.6216 21.8664L30.0007 19.1708C29.9449 18.9285 29.9876 18.674 30.1195 18.4632C30.2514 18.2524 30.4616 18.1026 30.7039 18.0468C31.2082 17.9299 31.7117 18.2454 31.8279 18.7499L32.4487 21.4455C32.4804 21.583 32.4807 21.7259 32.4495 21.8635C32.4183 22.0011 32.3564 22.1298 32.2685 22.2402C32.1807 22.3506 32.069 22.4397 31.9419 22.5009C31.8147 22.5621 31.6754 22.5938 31.5344 22.5937Z" fill="#BEC8F7"/>
<path d="M29.5488 20.0184C29.3184 20.0184 29.0961 19.9336 28.9243 19.7801C28.7525 19.6267 28.6432 19.4153 28.6173 19.1864C28.5914 18.9575 28.6506 18.7271 28.7838 18.5391C28.9169 18.3511 29.1146 18.2187 29.3391 18.1672L31.9831 17.5582C32.1031 17.5305 32.2274 17.5267 32.3488 17.5471C32.4702 17.5674 32.5865 17.6115 32.6908 17.6768C32.7952 17.7421 32.8857 17.8273 32.9572 17.9276C33.0286 18.0279 33.0796 18.1413 33.1071 18.2613C33.163 18.5036 33.1202 18.7581 32.9884 18.9689C32.8565 19.1797 32.6463 19.3295 32.404 19.3853L29.76 19.9943C29.6908 20.0103 29.6199 20.0184 29.5488 20.0184Z" fill="#E9EFFF"/>
<path d="M28.5796 25.088C28.5238 24.8457 28.5665 24.5911 28.6984 24.3804C28.8302 24.1696 29.0404 24.0198 29.2827 23.964L34.5707 22.746C35.0752 22.6292 35.5785 22.9446 35.6947 23.4491C35.811 23.9536 35.4961 24.457 34.9916 24.5731L29.7036 25.7911C29.4613 25.8469 29.2068 25.8042 28.996 25.6723C28.7852 25.5405 28.6354 25.3303 28.5796 25.088ZM29.3196 28.3007C29.2638 28.0584 29.3065 27.8039 29.4384 27.5931C29.5702 27.3823 29.7804 27.2325 30.0227 27.1767L35.3107 25.9587C35.5524 25.9044 35.8059 25.948 36.0155 26.08C36.2252 26.2119 36.3742 26.4215 36.4298 26.663C36.4854 26.9044 36.4432 27.1581 36.3123 27.3685C36.1815 27.5789 35.9727 27.7289 35.7316 27.7858L30.4436 29.0038C30.2013 29.0597 29.9468 29.0169 29.736 28.8851C29.5252 28.7532 29.3754 28.543 29.3196 28.3007ZM30.0596 31.5135C30.0319 31.3935 30.0282 31.2693 30.0486 31.1478C30.0689 31.0264 30.113 30.9102 30.1783 30.8058C30.2436 30.7015 30.3288 30.611 30.4291 30.5395C30.5294 30.4681 30.6427 30.4171 30.7627 30.3895L36.0507 29.1713C36.171 29.143 36.2956 29.1386 36.4175 29.1586C36.5395 29.1785 36.6562 29.2224 36.7611 29.2876C36.8661 29.3529 36.957 29.4382 37.0289 29.5387C37.1007 29.6392 37.152 29.7529 37.1797 29.8733C37.2074 29.9937 37.2111 30.1184 37.1905 30.2402C37.1698 30.362 37.1254 30.4786 37.0596 30.5831C36.9938 30.6877 36.9079 30.7782 36.807 30.8495C36.7061 30.9208 36.5921 30.9714 36.4716 30.9985L31.1836 32.2166C30.9413 32.2724 30.6868 32.2297 30.476 32.0978C30.2652 31.966 30.1154 31.7558 30.0596 31.5135ZM30.7997 34.7262C30.7721 34.6063 30.7683 34.482 30.7887 34.3606C30.8091 34.2392 30.8532 34.123 30.9184 34.0186C30.9837 33.9142 31.069 33.8237 31.1692 33.7523C31.2695 33.6808 31.3829 33.6298 31.5028 33.6022L36.7908 32.3841C36.9108 32.3564 37.0351 32.3527 37.1565 32.373C37.2779 32.3934 37.3941 32.4375 37.4985 32.5028C37.6029 32.5681 37.6934 32.6533 37.7648 32.7536C37.8363 32.8539 37.8872 32.9672 37.9148 33.0872C37.9425 33.2072 37.9462 33.3314 37.9259 33.4529C37.9055 33.5743 37.8614 33.6905 37.7961 33.7949C37.7308 33.8992 37.6456 33.9897 37.5453 34.0612C37.4451 34.1326 37.3317 34.1836 37.2117 34.2112L31.9237 35.4293C31.6814 35.4852 31.4269 35.4424 31.2161 35.3106C31.0053 35.1787 30.8555 34.9685 30.7997 34.7262ZM31.5397 37.9388C31.4839 37.6966 31.5266 37.442 31.6585 37.2312C31.7904 37.0204 32.0005 36.8707 32.2428 36.8148L37.5308 35.5968C38.0351 35.4801 38.5387 35.7953 38.6548 36.3C38.7106 36.5423 38.6679 36.7968 38.5361 37.0076C38.4042 37.2184 38.194 37.3682 37.9517 37.424L32.6637 38.642C32.4214 38.6978 32.1669 38.6551 31.9561 38.5232C31.7453 38.3913 31.5955 38.1811 31.5397 37.9388Z" fill="#CC0053"/>
<path d="M36.9711 60.0253C28.4565 59.0657 31.1067 50.3002 31.1067 50.2998C31.0428 50.3469 30.9759 50.3899 30.9065 50.4286L17.9014 57.4824C20.6331 60.6179 23.9925 63.1918 27.7842 65.0084L36.9711 60.0253Z" fill="#FD995B"/>
<defs>
<filter id="filter0_d_7032_15846" x="0.374756" y="0.749023" width="81.2505" height="81.251" filterUnits="userSpaceOnUse" color-interpolation-filters="sRGB">
<feFlood flood-opacity="0" result="BackgroundImageFix"/>
<feColorMatrix in="SourceAlpha" type="matrix" values="0 0 0 0 0 0 0 0 0 0 0 0 0 0 0 0 0 0 127 0" result="hardAlpha"/>
<feOffset dy="4"/>
<feGaussianBlur stdDeviation="5"/>
<feComposite in2="hardAlpha" operator="out"/>
<feColorMatrix type="matrix" values="0 0 0 0 0 0 0 0 0 0 0 0 0 0 0 0 0 0 0.14 0"/>
<feBlend mode="normal" in2="BackgroundImageFix" result="effect1_dropShadow_7032_15846"/>
<feBlend mode="normal" in="SourceGraphic" in2="effect1_dropShadow_7032_15846" result="shape"/>
</filter>
</defs>
</svg>
