<svg width="45" height="44" viewBox="0 0 45 44" fill="none" xmlns="http://www.w3.org/2000/svg">
<path d="M12.4868 23.6875C12.3472 23.6876 12.212 23.7364 12.1044 23.8253C11.9969 23.9143 11.9236 24.0379 11.8973 24.175L9.40538 37.6366C9.06898 37.2149 8.64201 36.8743 8.1561 36.6399C7.67018 36.4056 7.13778 36.2836 6.59832 36.283C5.64452 36.2854 4.73054 36.6657 4.05652 37.3405C3.38251 38.0154 3.00339 38.9298 3.0022 39.8836C3.00399 40.8371 3.38337 41.7509 4.05732 42.4253C4.73127 43.0997 5.64491 43.4796 6.59832 43.482H42.4053C42.4927 43.4817 42.5788 43.4622 42.6579 43.4252C42.737 43.3881 42.807 43.3342 42.8631 43.2673C42.9192 43.2004 42.9601 43.1221 42.9828 43.0377C43.0056 42.9534 43.0097 42.8652 42.9949 42.7791L39.6663 24.1795C39.6409 24.0416 39.568 23.9169 39.4604 23.8271C39.3527 23.7372 39.217 23.6878 39.0768 23.6875H12.4868Z" fill="#E2F0FA"/>
<path fill-rule="evenodd" clip-rule="evenodd" d="M13.0401 31.168L12.0901 36.2833H18.9468L19.797 35.433V33.7007L13.0401 31.168Z" fill="#4895EF"/>
<path d="M20.9987 33.8818V35.6867C20.9965 35.8454 20.9307 35.9951 20.8196 36.1062L19.797 37.1288V41.0786H30.5944V33.8818H20.9987Z" fill="#50B86B"/>
<path d="M15.5977 26.0889H14.4776C14.338 26.089 14.2028 26.1377 14.0952 26.2267C13.9877 26.3156 13.9144 26.4393 13.8881 26.5764L13.26 29.9775C13.2963 29.9843 13.328 29.9934 13.362 30.0047L20.5044 32.6825H30.5944V26.0889H15.5977Z" fill="#C8DAE5"/>
<path d="M23.4221 0C16.8024 0 11.4233 5.3791 11.4233 11.9988C11.4233 18.6185 16.8024 24 23.4221 24C30.0418 24 35.4233 18.6209 35.4233 11.9988C35.4233 5.37665 30.0442 0 23.4221 0Z" fill="#8ACDFD"/>
<path d="M23.4233 2C17.901 2 13.4233 6.47768 13.4233 12C13.4233 17.5223 17.901 22 23.4233 22C28.9457 22 33.4233 17.5223 33.4233 12C33.4233 6.47768 28.9457 2 23.4233 2ZM24.1376 16.8214C24.1376 16.9196 24.0573 17 23.9591 17H22.8876C22.7894 17 22.7091 16.9196 22.7091 16.8214V10.75C22.7091 10.6518 22.7894 10.5714 22.8876 10.5714H23.9591C24.0573 10.5714 24.1376 10.6518 24.1376 10.75V16.8214ZM23.4233 9.14286C23.143 9.13713 22.876 9.02174 22.6797 8.82143C22.4835 8.62112 22.3736 8.35186 22.3736 8.07143C22.3736 7.791 22.4835 7.52174 22.6797 7.32143C22.876 7.12112 23.143 7.00572 23.4233 7C23.7037 7.00572 23.9707 7.12112 24.1669 7.32143C24.3632 7.52174 24.4731 7.791 24.4731 8.07143C24.4731 8.35186 24.3632 8.62112 24.1669 8.82143C23.9707 9.02174 23.7037 9.13713 23.4233 9.14286Z" fill="#4895EF"/>
<path d="M31.7939 26.0889V30.1022L37.9931 28.4424L37.6575 26.5809C37.6321 26.443 37.5592 26.3183 37.4516 26.2284C37.3439 26.1386 37.2082 26.0892 37.068 26.0889H31.7939Z" fill="#50B86B"/>
<path d="M11.8701 37.4844L11.335 40.3708C11.3194 40.4572 11.3229 40.5459 11.3454 40.6308C11.3678 40.7157 11.4085 40.7946 11.4647 40.862C11.5209 40.9295 11.5912 40.9838 11.6706 41.0211C11.7501 41.0585 11.8367 41.078 11.9245 41.0782H18.5975V37.4844H11.8701Z" fill="#C8DAE5"/>
<path d="M23.2071 22.512C23.1282 22.512 23.05 22.5276 22.9771 22.5578C22.9042 22.588 22.838 22.6322 22.7822 22.688C22.7264 22.7438 22.6821 22.8101 22.6519 22.883C22.6217 22.9559 22.6062 23.034 22.6062 23.1129V29.1102C22.6062 29.1891 22.6217 29.2673 22.6519 29.3402C22.6821 29.4131 22.7264 29.4793 22.7822 29.5351C22.838 29.5909 22.9042 29.6351 22.9771 29.6653C23.05 29.6955 23.1282 29.7111 23.2071 29.7111C23.366 29.7105 23.5183 29.6469 23.6305 29.5343C23.7427 29.4217 23.8057 29.2692 23.8057 29.1102V23.1106C23.8057 22.9517 23.7427 22.7992 23.6305 22.6866C23.5183 22.5739 23.366 22.5104 23.2071 22.5098V22.512Z" fill="#8ACDFD"/>
<path d="M6.60065 36.2822C4.61893 36.2822 3 37.9034 3 39.8829C3 41.8646 4.61893 43.4835 6.60065 43.4835H42.4077C42.567 43.4835 42.7199 43.4202 42.8325 43.3075C42.9452 43.1949 43.0085 43.042 43.0085 42.8827C43.0085 42.7233 42.9452 42.5705 42.8325 42.4578C42.7199 42.3451 42.567 42.2818 42.4077 42.2818H6.60065C5.26742 42.2818 4.19946 41.2161 4.19946 39.8829C4.19946 38.5519 5.26742 37.4817 6.60065 37.4817C7.93163 37.4817 8.99958 38.5519 8.99958 39.8851C8.99958 40.0445 9.06289 40.1973 9.17557 40.31C9.28825 40.4227 9.44109 40.486 9.60044 40.486C9.7598 40.486 9.91264 40.4227 10.0253 40.31C10.138 40.1973 10.2013 40.0445 10.2013 39.8851C10.2013 37.9034 8.58011 36.2822 6.60065 36.2822Z" fill="#C8DAE5"/>
<path d="M8.99951 39.8834C9.00102 40.0229 9.05054 40.1577 9.13973 40.2651C9.22892 40.3724 9.35235 40.4458 9.48927 40.4729C9.64591 40.5013 9.80743 40.4664 9.93837 40.3759C10.0693 40.2853 10.159 40.1465 10.1876 39.9899L13.1874 23.7938C13.1943 23.7563 13.1989 23.7185 13.201 23.6804C13.201 21.735 11.6977 20.082 9.60037 20.082V20.0843C8.69341 20.0843 7.8454 20.4085 7.21279 21.023C6.58245 21.6352 6.17431 22.5195 6.00879 23.5965V23.5738L3.0997 39.0467L3.09743 39.0648C3.03415 39.3338 3.0022 39.6093 3.0022 39.8856H3.00673C3.00673 40.1849 3.23121 40.4389 3.52824 40.4774C3.68604 40.4967 3.84503 40.4526 3.9704 40.3548C4.09577 40.2571 4.1773 40.1136 4.19713 39.9559L4.27648 39.2802C4.40827 38.7651 4.70825 38.3087 5.12885 37.9834C5.54945 37.6581 6.0666 37.4825 6.59832 37.4844C7.92929 37.4844 8.99497 38.5501 8.99951 39.8834Z" fill="#C8DAE5"/>
<path fill-rule="evenodd" clip-rule="evenodd" d="M37.3786 28.6055C37.3725 28.6069 37.3665 28.6084 37.3604 28.61L34.7144 29.3197L37.3786 28.6055ZM38.2062 29.6281L31.7939 31.3445V35.0857H39.1812L38.2062 29.6281Z" fill="#C8DAE5"/>
<path d="M31.7939 36.2832V41.0788H39.5394C39.6268 41.0784 39.7129 41.059 39.792 41.0219C39.8711 40.9848 39.9411 40.931 39.9972 40.864C40.0533 40.7971 40.0942 40.7188 40.1169 40.6345C40.1397 40.5502 40.1438 40.4619 40.129 40.3759L39.3989 36.2832H31.7939Z" fill="#4895EF"/>
</svg>
