<svg width="45" height="53" viewBox="0 0 45 53" fill="none" xmlns="http://www.w3.org/2000/svg">
<g opacity="0.3">
<path opacity="0.8" d="M31.0609 10.835C29.8581 10.8338 28.7049 10.3555 27.8545 9.50501C27.004 8.65452 26.5257 7.50134 26.5245 6.29857V0H6.25369C4.68355 0 3.17774 0.623751 2.06749 1.734C0.957234 2.84426 0.333496 4.35005 0.333496 5.92018V41.6086C0.335828 43.1772 0.960588 44.6808 2.07059 45.7891C3.18059 46.8975 4.68508 47.52 6.25369 47.52H30.5879C32.1565 47.52 33.661 46.8975 34.771 45.7891C35.881 44.6808 36.5058 43.1772 36.5081 41.6086V10.835H31.0609Z" fill="#F56C6C"/>
</g>
<path d="M36.508 10.835H31.0608C29.858 10.8338 28.7049 10.3555 27.8544 9.50501C27.0039 8.65452 26.5256 7.50134 26.5244 6.29857V0L36.508 10.835Z" fill="#F56C6C"/>
<path d="M29.0656 33.1849H6.35283C6.13403 33.1849 5.92418 33.098 5.76946 32.9433C5.61475 32.7885 5.52783 32.5787 5.52783 32.3599C5.52841 32.1415 5.61559 31.9322 5.77024 31.7779C5.9249 31.6237 6.13441 31.5371 6.35283 31.5371H29.0656C29.2838 31.5371 29.4931 31.6238 29.6474 31.7781C29.8017 31.9324 29.8884 32.1417 29.8884 32.3599C29.8887 32.4681 29.8676 32.5754 29.8264 32.6755C29.7852 32.7755 29.7246 32.8665 29.6482 32.9431C29.5718 33.0197 29.481 33.0806 29.381 33.1221C29.281 33.1636 29.1739 33.1849 29.0656 33.1849Z" fill="#F56C6C"/>
<path d="M29.0656 23.8919H6.35283C6.13441 23.8919 5.9249 23.8053 5.77024 23.651C5.61559 23.4968 5.52841 23.2876 5.52783 23.0691C5.52783 22.8503 5.61475 22.6404 5.76946 22.4857C5.92418 22.331 6.13403 22.2441 6.35283 22.2441H29.0656C29.1739 22.2441 29.281 22.2655 29.381 22.307C29.481 22.3485 29.5718 22.4093 29.6482 22.4859C29.7246 22.5625 29.7852 22.6535 29.8264 22.7536C29.8676 22.8537 29.8887 22.9609 29.8884 23.0691C29.8884 23.2874 29.8017 23.4966 29.6474 23.6509C29.4931 23.8052 29.2838 23.8919 29.0656 23.8919Z" fill="#F56C6C"/>
<path d="M29.0656 28.5384H6.35283C6.13403 28.5384 5.92418 28.4515 5.76946 28.2968C5.61475 28.1421 5.52783 27.9322 5.52783 27.7134C5.52841 27.495 5.61559 27.2857 5.77024 27.1315C5.9249 26.9772 6.13441 26.8906 6.35283 26.8906H29.0656C29.2838 26.8906 29.4931 26.9773 29.6474 27.1316C29.8017 27.2859 29.8884 27.4952 29.8884 27.7134C29.8887 27.8217 29.8676 27.9289 29.8264 28.029C29.7852 28.1291 29.7246 28.22 29.6482 28.2967C29.5718 28.3733 29.481 28.4341 29.381 28.4756C29.281 28.5171 29.1739 28.5384 29.0656 28.5384Z" fill="#F56C6C"/>
<path d="M20.1072 19.2455H6.35283C6.13441 19.2455 5.9249 19.1589 5.77024 19.0046C5.61559 18.8504 5.52841 18.6411 5.52783 18.4227C5.52783 18.2039 5.61475 17.994 5.76946 17.8393C5.92418 17.6846 6.13403 17.5977 6.35283 17.5977H20.1072C20.3257 17.5982 20.5349 17.6854 20.6892 17.8401C20.8434 17.9947 20.93 18.2042 20.93 18.4227C20.9295 18.6407 20.8426 18.8496 20.6884 19.0038C20.5342 19.158 20.3253 19.2449 20.1072 19.2455Z" fill="#F56C6C"/>
<path d="M20.1072 14.599H6.35283C6.13441 14.599 5.9249 14.5123 5.77024 14.3581C5.61559 14.2038 5.52841 13.9946 5.52783 13.7762C5.52783 13.5574 5.61475 13.3475 5.76946 13.1928C5.92418 13.038 6.13403 12.9512 6.35283 12.9512H20.1072C20.3257 12.9518 20.5349 13.0389 20.6892 13.1936C20.8434 13.3482 20.93 13.5577 20.93 13.7762C20.9295 13.9942 20.8426 14.2031 20.6884 14.3573C20.5342 14.5115 20.3253 14.5984 20.1072 14.599Z" fill="#F56C6C"/>
<path d="M40.8003 37.5342H13.2915C11.3402 37.5342 9.7583 39.116 9.7583 41.0674V49.269C9.7583 51.2203 11.3402 52.8022 13.2915 52.8022H40.8003C42.7516 52.8022 44.3335 51.2203 44.3335 49.269V41.0674C44.3335 39.116 42.7516 37.5342 40.8003 37.5342Z" fill="#F56C6C"/>
<path d="M18.7828 46.9434V48.5428H17.1284V46.9434H18.7828Z" fill="white"/>
<path d="M21.2161 46.2221V48.5431H19.6167V41.9277H22.2083C22.9937 41.9277 23.5943 42.1235 24.0057 42.5129C24.2139 42.7175 24.3764 42.9638 24.4826 43.2356C24.5887 43.5075 24.6361 43.7988 24.6217 44.0903C24.6297 44.4749 24.5348 44.8547 24.3467 45.1903C24.1546 45.5184 23.8699 45.7825 23.5283 45.9493C23.1162 46.1441 22.6639 46.2383 22.2083 46.2243L21.2161 46.2221ZM22.9937 44.0903C22.9937 43.5036 22.6725 43.2103 22.0301 43.2103H21.2161V44.9329H22.0301C22.6725 44.9388 22.9937 44.6579 22.9937 44.0903Z" fill="white"/>
<path d="M30.9422 46.9484C30.6667 47.4486 30.2506 47.8571 29.7454 48.1232C29.1769 48.4142 28.5447 48.5586 27.9062 48.5434H25.4092V41.928H27.9062C28.5452 41.9119 29.1783 42.0532 29.7498 42.3394C30.2536 42.5998 30.6687 43.0041 30.9422 43.501C31.2284 44.0285 31.3725 44.6214 31.3602 45.2214C31.3721 45.8235 31.2281 46.4184 30.9422 46.9484ZM29.2218 46.6162C29.4006 46.4326 29.5392 46.2137 29.6286 45.9736C29.718 45.7334 29.7563 45.4772 29.741 45.2214C29.7564 44.9659 29.7181 44.71 29.6287 44.4701C29.5393 44.2303 29.4007 44.0118 29.2218 43.8288C28.8216 43.4777 28.2989 43.2989 27.7676 43.3316H27.0086V47.1112H27.7676C28.2985 47.1434 28.8208 46.9656 29.2218 46.6162Z" fill="white"/>
<path d="M36.5808 41.9277V43.2015H33.8682V44.6513H35.9626V45.8679H33.8682V48.5431H32.2666V41.9277H36.5808Z" fill="white"/>
<path d="M28.6631 12.9512H24.7735C24.0955 12.9512 23.5459 13.5008 23.5459 14.1788V18.0684C23.5459 18.7464 24.0955 19.296 24.7735 19.296H28.6631C29.3411 19.296 29.8907 18.7464 29.8907 18.0684V14.1788C29.8907 13.5008 29.3411 12.9512 28.6631 12.9512Z" fill="#F56C6C"/>
</svg>
