<svg width="12" height="13" viewBox="0 0 12 13" fill="none" xmlns="http://www.w3.org/2000/svg">
<g clip-path="url(#clip0_7499_928)">
<path d="M6 0.604492C2.68661 0.604492 0 3.2911 0 6.60449C0 9.91789 2.68661 12.6045 6 12.6045C9.31339 12.6045 12 9.91789 12 6.60449C12 3.2911 9.31339 0.604492 6 0.604492ZM6 11.5866C3.24911 11.5866 1.01786 9.35539 1.01786 6.60449C1.01786 3.8536 3.24911 1.62235 6 1.62235C8.75089 1.62235 10.9821 3.8536 10.9821 6.60449C10.9821 9.35539 8.75089 11.5866 6 11.5866Z" fill="black" fill-opacity="0.88"/>
<path d="M8.33984 8.29877L6.43002 6.91797V3.60324C6.43002 3.54431 6.3818 3.49609 6.32287 3.49609H5.67868C5.61975 3.49609 5.57153 3.54431 5.57153 3.60324V7.29163C5.57153 7.32645 5.5876 7.35859 5.61573 7.37868L7.83091 8.99386C7.87912 9.02868 7.94609 9.01797 7.98091 8.97109L8.36394 8.44877C8.39877 8.39922 8.38805 8.33225 8.33984 8.29877Z" fill="black" fill-opacity="0.88"/>
</g>
<defs>
<clipPath id="clip0_7499_928">
<rect width="12" height="12" fill="white" transform="translate(0 0.604492)"/>
</clipPath>
</defs>
</svg>
