<svg width="44" height="54" viewBox="0 0 44 54" fill="none" xmlns="http://www.w3.org/2000/svg">
<g opacity="0.3">
<path opacity="0.8" d="M30.7274 11.6368C29.5246 11.6356 28.3714 11.1573 27.5209 10.3068C26.6705 9.45628 26.1922 8.3031 26.191 7.10033V0.801758H5.92018C4.35005 0.801758 2.84426 1.42551 1.734 2.53576C0.623751 3.64601 0 5.1518 0 6.72194V42.4103C0 43.9805 0.623751 45.4863 1.734 46.5966C2.84426 47.7068 4.35005 48.3306 5.92018 48.3306H30.2522C31.0298 48.3309 31.7999 48.1779 32.5184 47.8805C33.2369 47.5831 33.8899 47.1471 34.4398 46.5974C34.9898 46.0476 35.4261 45.3949 35.7237 44.6764C36.0214 43.958 36.1746 43.188 36.1746 42.4103V11.6368H30.7274Z" fill="#F56C6C"/>
</g>
<path d="M36.1745 11.6368H30.7273C29.5245 11.6356 28.3713 11.1573 27.5209 10.3068C26.6704 9.45628 26.1921 8.3031 26.1909 7.10033V0.801758L36.1745 11.6368Z" fill="#F56C6C"/>
<path d="M40.4668 38.3359H12.958C11.0066 38.3359 9.4248 39.9178 9.4248 41.8691V50.0707C9.4248 52.0221 11.0066 53.6039 12.958 53.6039H40.4668C42.4181 53.6039 44 52.0221 44 50.0707V41.8691C44 39.9178 42.4181 38.3359 40.4668 38.3359Z" fill="#F56C6C"/>
<path d="M19.0961 47.7451V49.3445H17.4395V47.7451H19.0961Z" fill="white"/>
<path d="M21.5291 47.0239V49.3449H19.9297V42.7295H22.5213C23.3074 42.7295 23.9058 42.9245 24.3165 43.3147C24.5249 43.5191 24.6878 43.7654 24.7943 44.0372C24.9009 44.3091 24.9487 44.6004 24.9347 44.8921C24.9416 45.2766 24.8468 45.6561 24.6597 45.9921C24.4674 46.3207 24.1818 46.5849 23.8391 46.7511C23.4273 46.9467 22.9747 47.0409 22.5191 47.0261L21.5291 47.0239ZM23.3067 44.8921C23.3067 44.3054 22.9855 44.0121 22.3431 44.0121H21.5291V45.7347H22.3431C22.9855 45.7405 23.3067 45.4597 23.3067 44.8921Z" fill="white"/>
<path d="M27.3218 47.0239V49.3449H25.7202V42.7295H28.3118C29.0994 42.7295 29.6986 42.9245 30.1093 43.3147C30.3177 43.5191 30.4805 43.7654 30.5871 44.0372C30.6936 44.3091 30.7414 44.6004 30.7274 44.8921C30.7347 45.2769 30.6389 45.6566 30.4502 45.9921C30.2593 46.3211 29.9743 46.5855 29.6318 46.7511C29.22 46.9467 28.7674 47.0409 28.3118 47.0261L27.3218 47.0239ZM29.0994 44.8921C29.0994 44.3054 28.7782 44.0121 28.1358 44.0121H27.3218V45.7347H28.1358C28.7782 45.7405 29.0994 45.4597 29.0994 44.8921Z" fill="white"/>
<path d="M36.267 42.7295V44.0033H34.4695V49.3449H32.8614V44.0033H31.0815V42.7295H36.267Z" fill="white"/>
<path d="M16.4319 19.222H6.82012C6.60169 19.222 6.39217 19.1354 6.23751 18.9812C6.08286 18.8269 5.9957 18.6176 5.99512 18.3992C5.99512 18.1804 6.08205 17.9706 6.23676 17.8159C6.39148 17.6611 6.60131 17.5742 6.82012 17.5742H16.4231C16.6419 17.5742 16.8518 17.6611 17.0065 17.8159C17.1612 17.9706 17.2481 18.1804 17.2481 18.3992C17.2475 18.6161 17.1616 18.8241 17.0088 18.9781C16.8561 19.1321 16.6488 19.2197 16.4319 19.222Z" fill="#F56C6C"/>
<path d="M16.4319 24.1439H6.82012C6.60169 24.1439 6.39217 24.0572 6.23751 23.903C6.08286 23.7488 5.9957 23.5395 5.99512 23.3211C5.99512 23.1023 6.08205 22.8924 6.23676 22.7377C6.39148 22.583 6.60131 22.4961 6.82012 22.4961H16.4231C16.6419 22.4961 16.8518 22.583 17.0065 22.7377C17.1612 22.8924 17.2481 23.1023 17.2481 23.3211C17.2475 23.538 17.1616 23.7459 17.0088 23.8999C16.8561 24.0539 16.6488 24.1416 16.4319 24.1439Z" fill="#F56C6C"/>
<path d="M16.4319 29.0653H6.82012C6.60131 29.0653 6.39148 28.9783 6.23676 28.8236C6.08205 28.6689 5.99512 28.4591 5.99512 28.2403C5.99686 28.0226 6.08454 27.8145 6.23907 27.6612C6.3936 27.5079 6.60245 27.4219 6.82012 27.4219H16.4231C16.6415 27.4219 16.851 27.5085 17.0057 27.6627C17.1604 27.817 17.2475 28.0263 17.2481 28.2447C17.247 28.4612 17.1608 28.6686 17.0081 28.8221C16.8554 28.9756 16.6484 29.063 16.4319 29.0653Z" fill="#F56C6C"/>
<path d="M16.4319 33.9867H6.82012C6.60131 33.9867 6.39148 33.8997 6.23676 33.745C6.08205 33.5903 5.99512 33.3805 5.99512 33.1617C5.9957 32.9432 6.08286 32.7339 6.23751 32.5797C6.39217 32.4255 6.60169 32.3389 6.82012 32.3389H16.4231C16.6415 32.3389 16.851 32.4255 17.0057 32.5797C17.1604 32.7339 17.2475 32.9432 17.2481 33.1617C17.2481 33.379 17.1624 33.5874 17.0096 33.7419C16.8568 33.8964 16.6492 33.9843 16.4319 33.9867Z" fill="#F56C6C"/>
<path d="M25.7948 26.762V19.4492C24.0133 19.5433 22.3357 20.3172 21.1077 21.6114C19.8798 22.9056 19.1952 24.6215 19.1948 26.4056C19.1945 27.3204 19.3745 28.2262 19.7244 29.0714C20.0743 29.9166 20.5874 30.6846 21.2342 31.3314C21.8811 31.9783 22.649 32.4913 23.4942 32.8412C24.3394 33.1912 25.2452 33.3711 26.16 33.3708C27.944 33.371 29.66 32.6864 30.954 31.4583C32.248 30.2303 33.0212 28.5524 33.1142 26.7708L25.7948 26.762Z" fill="#F56C6C"/>
<path d="M27.1284 18.8926V25.4926H33.7284C33.6403 23.7707 32.9166 22.1427 31.6974 20.9235C30.4783 19.7044 28.8503 18.9807 27.1284 18.8926Z" fill="#F56C6C"/>
</svg>
