<svg width="18" height="18" viewBox="0 0 18 18" fill="none" xmlns="http://www.w3.org/2000/svg">
<path d="M12.7111 12.1981C13.2512 11.9079 13.8695 11.7427 14.528 11.7427H14.5303C14.5972 11.7427 14.6285 11.6624 14.5794 11.6177C13.8946 11.0032 13.1123 10.5068 12.2646 10.149C12.2557 10.1445 12.2468 10.1423 12.2378 10.1378C13.624 9.13114 14.5258 7.49498 14.5258 5.649C14.5258 2.59096 12.0526 0.113281 9.00124 0.113281C5.9499 0.113281 3.47892 2.59096 3.47892 5.649C3.47892 7.49498 4.38071 9.13114 5.7691 10.1378C5.76017 10.1423 5.75124 10.1445 5.74231 10.149C4.74455 10.5709 3.84946 11.1758 3.07937 11.9481C2.31372 12.7124 1.70417 13.6183 1.28472 14.6155C0.87203 15.592 0.649303 16.6382 0.628474 17.6981C0.627878 17.7219 0.632057 17.7456 0.640764 17.7678C0.649471 17.79 0.66253 17.8102 0.679171 17.8273C0.695813 17.8443 0.7157 17.8579 0.737662 17.8671C0.759623 17.8764 0.783214 17.8811 0.807045 17.8811H2.1441C2.24008 17.8811 2.32044 17.803 2.32267 17.707C2.36731 15.9838 3.05705 14.37 4.27803 13.1468C5.53919 11.8811 7.21776 11.1847 9.00348 11.1847C10.2691 11.1847 11.4834 11.5352 12.5303 12.1914C12.5572 12.2083 12.588 12.2178 12.6198 12.219C12.6515 12.2202 12.683 12.213 12.7111 12.1981ZM9.00348 9.48828C7.98115 9.48828 7.0191 9.08873 6.29365 8.36328C5.93672 8.00728 5.65376 7.58417 5.46106 7.11832C5.26837 6.65248 5.16975 6.15312 5.17089 5.649C5.17089 4.62444 5.57044 3.66016 6.29365 2.93471C7.01687 2.20926 7.97892 1.80971 9.00348 1.80971C10.028 1.80971 10.9878 2.20926 11.7133 2.93471C12.0702 3.29072 12.3532 3.71383 12.5459 4.17967C12.7386 4.64551 12.8372 5.14487 12.8361 5.649C12.8361 6.67355 12.4365 7.63784 11.7133 8.36328C10.9878 9.08873 10.0258 9.48828 9.00348 9.48828ZM17.2133 14.8008H11.8562C11.7579 14.8008 11.6776 14.8811 11.6776 14.9794V16.2294C11.6776 16.3276 11.7579 16.4079 11.8562 16.4079H17.2133C17.3115 16.4079 17.3919 16.3276 17.3919 16.2294V14.9794C17.3919 14.8811 17.3115 14.8008 17.2133 14.8008Z" fill="#1F1F1F"/>
</svg>
