<svg width="14" height="15" viewBox="0 0 14 15" fill="none" xmlns="http://www.w3.org/2000/svg">
<path d="M9.96983 9.82411C10.402 9.59196 10.8966 9.45982 11.4234 9.45982H11.4252C11.4788 9.45982 11.5038 9.39554 11.4645 9.35982C10.9166 8.86818 10.2908 8.47109 9.61268 8.18482C9.60554 8.18125 9.5984 8.17946 9.59126 8.17589C10.7002 7.37054 11.4216 6.06161 11.4216 4.58482C11.4216 2.13839 9.44304 0.15625 7.00197 0.15625C4.5609 0.15625 2.58411 2.13839 2.58411 4.58482C2.58411 6.06161 3.30554 7.37054 4.41626 8.17589C4.40911 8.17946 4.40197 8.18125 4.39483 8.18482C3.59661 8.52232 2.88054 9.00625 2.26447 9.62411C1.65196 10.2355 1.16432 10.9603 0.828755 11.758C0.4986 12.5392 0.320419 13.3762 0.303756 14.2241C0.303279 14.2432 0.306622 14.2621 0.313587 14.2799C0.320553 14.2976 0.331 14.3138 0.344313 14.3274C0.357627 14.3411 0.373537 14.3519 0.391106 14.3593C0.408675 14.3667 0.427548 14.3705 0.446613 14.3705H1.51626C1.59304 14.3705 1.65733 14.308 1.65911 14.2313C1.69483 12.8527 2.24661 11.5616 3.2234 10.583C4.23233 9.57054 5.57518 9.01339 7.00376 9.01339C8.01626 9.01339 8.98769 9.29375 9.82518 9.81875C9.8467 9.83227 9.8714 9.83988 9.89679 9.84082C9.92218 9.84176 9.94737 9.836 9.96983 9.82411ZM7.00376 7.65625C6.1859 7.65625 5.41626 7.33661 4.8359 6.75625C4.55035 6.47145 4.32398 6.13296 4.16983 5.76028C4.01567 5.38761 3.93677 4.98812 3.93768 4.58482C3.93768 3.76518 4.25733 2.99375 4.8359 2.41339C5.41447 1.83304 6.18411 1.51339 7.00376 1.51339C7.8234 1.51339 8.59126 1.83304 9.17161 2.41339C9.45716 2.6982 9.68353 3.03669 9.83768 3.40936C9.99184 3.78203 10.0707 4.18152 10.0698 4.58482C10.0698 5.40446 9.75018 6.17589 9.17161 6.75625C8.59126 7.33661 7.82161 7.65625 7.00376 7.65625ZM13.5716 11.9063H12.0716V10.4062C12.0716 10.3277 12.0073 10.2634 11.9288 10.2634H10.9288C10.8502 10.2634 10.7859 10.3277 10.7859 10.4062V11.9063H9.2859C9.20733 11.9063 9.14304 11.9705 9.14304 12.0491V13.0491C9.14304 13.1277 9.20733 13.192 9.2859 13.192H10.7859V14.692C10.7859 14.7705 10.8502 14.8348 10.9288 14.8348H11.9288C12.0073 14.8348 12.0716 14.7705 12.0716 14.692V13.192H13.5716C13.6502 13.192 13.7145 13.1277 13.7145 13.0491V12.0491C13.7145 11.9705 13.6502 11.9063 13.5716 11.9063Z" fill="white"/>
</svg>
