<svg width="45" height="54" viewBox="0 0 45 54" fill="none" xmlns="http://www.w3.org/2000/svg">
<g opacity="0.3">
<path opacity="0.8" d="M31.0609 11.6368C29.8579 11.635 28.7047 11.1562 27.8543 10.3054C27.0039 9.45453 26.5257 8.30113 26.5245 7.09816V0.801758H6.25369C4.68355 0.801758 3.17774 1.42548 2.06749 2.53573C0.957234 3.64599 0.333496 5.15183 0.333496 6.72196V42.4104C0.335828 43.979 0.960588 45.4825 2.07059 46.5909C3.18059 47.6992 4.68508 48.3218 6.25369 48.3217H30.5879C32.1565 48.3218 33.661 47.6992 34.771 46.5909C35.881 45.4825 36.5058 43.979 36.5081 42.4104V11.6368H31.0609Z" fill="#F56C6C"/>
</g>
<path d="M36.508 11.6368H31.0608C29.8578 11.635 28.7047 11.1562 27.8542 10.3054C27.0038 9.45453 26.5256 8.30113 26.5244 7.09816V0.801758L36.508 11.6368Z" fill="#F56C6C"/>
<path d="M40.8003 38.3359H13.2915C11.3402 38.3359 9.7583 39.9178 9.7583 41.8691V50.0707C9.7583 52.0221 11.3402 53.6039 13.2915 53.6039H40.8003C42.7516 53.6039 44.3335 52.0221 44.3335 50.0707V41.8691C44.3335 39.9178 42.7516 38.3359 40.8003 38.3359Z" fill="#F56C6C"/>
<path d="M20.6502 47.7451V49.3445H18.9937V47.7451H20.6502Z" fill="white"/>
<path d="M23.1389 48.0535H26.0583V49.3449H21.3613V48.1283L24.2345 44.0121H21.3987V42.7295H26.0407V43.9461L23.1389 48.0535Z" fill="white"/>
<path d="M28.6406 42.7295V49.3449H27.0479V42.7295H28.6406Z" fill="white"/>
<path d="M31.3445 47.0239V49.3449H29.7451V42.7295H32.3279C33.1133 42.7295 33.7139 42.9231 34.1253 43.3147C34.3336 43.5188 34.4964 43.7647 34.6029 44.0362C34.7095 44.3076 34.7574 44.5986 34.7435 44.8899C34.7504 45.2747 34.6547 45.6544 34.4663 45.9899C34.2742 46.318 33.9895 46.5821 33.6479 46.7489C33.2356 46.9428 32.7834 47.037 32.3279 47.0239H31.3445ZM33.1221 44.8899C33.1221 44.3106 32.8009 44.0172 32.1585 44.0099H31.3445V45.7303H32.1585C32.8009 45.7376 33.1221 45.4575 33.1221 44.8899Z" fill="white"/>
<path d="M18.4175 34.3561C17.6777 34.3549 16.9685 34.0603 16.4455 33.5369C15.9225 33.0136 15.6285 32.3041 15.6279 31.5642V28.7725H21.2093V31.5642C21.2087 32.3045 20.9144 33.0143 20.391 33.5377C19.8675 34.0612 19.1578 34.3555 18.4175 34.3561ZM17.0557 30.2003V31.5642C17.0557 31.9256 17.1991 32.2722 17.4545 32.528C17.7098 32.7837 18.0562 32.9277 18.4175 32.9283C18.7791 32.9277 19.1257 32.7838 19.3814 32.5281C19.637 32.2724 19.7809 31.9258 19.7815 31.5642V30.2003H17.0557Z" fill="#F56C6C"/>
<path d="M15.6259 28.7744H18.4243V25.976H15.6259V28.7744Z" fill="#F56C6C"/>
<path d="M18.4174 25.9785H21.2158V23.1801H18.4174V25.9785Z" fill="#F56C6C"/>
<path d="M15.6259 23.1826H18.4243V20.3842H15.6259V23.1826Z" fill="#F56C6C"/>
<path d="M18.4174 20.3857H21.2158V17.5873H18.4174V20.3857Z" fill="#F56C6C"/>
</svg>
